<svg width="161" height="48" fill="none" xmlns="http://www.w3.org/2000/svg"><path d="M12.778 5.2h13.2c1.2 0 4.8-.4 6.4 5.2 1.2 3.6 2.8 9.2 5.2 17.6h.8c2.4-8.8 4.4-14.8 5.2-17.6 1.6-5.6 5.6-5.2 7.2-5.2h12.4v38.4h-12.8V20.8h-.8l-6.8 22.8h-9.6l-6.8-22.8h-1.2v22.8h-12.4m55.6-38.4h12.8V28h1.2l8.4-18.8c1.6-3.6 5.2-4 5.2-4h12v38.4h-12.8V20.8h-.8l-8.4 18.8c-1.6 3.6-5.6 4-5.6 4h-12m56.8-11.6v11.6h-12v-20h39.2c-1.6 4.8-7.2 8.4-13.6 8.4" fill="#0F754E"/><path d="M153.178 21.2c1.6-7.2-3.2-16-13.6-16h-27.2c.8 8.4 8 16 15.6 16" fill="url(#paint0_linear_18_128)"/><defs><linearGradient id="paint0_linear_18_128" x1="148.378" y1="0" x2="116.378" y2="0" gradientUnits="userSpaceOnUse"><stop stop-color="#1F5CD7"/><stop offset="1" stop-color="#02AEFF"/></linearGradient></defs></svg>