<svg width="49" height="24" viewBox="0 0 49 24" fill="none" xmlns="http://www.w3.org/2000/svg">
<g clip-path="url(#clip0_1_612)">
<path d="M42.0062 6.85074V12.7183H39.9023V8.60234H37.8764V12.7183H35.7725V6.85034H42.0062V6.85074Z" fill="black"/>
<path fill-rule="evenodd" clip-rule="evenodd" d="M31.451 12.9281C33.3344 12.9281 34.733 11.7781 34.733 10.0347C34.733 8.34733 33.7011 7.25173 31.9766 7.25173C31.1806 7.25173 30.5239 7.53073 30.0292 8.01213C30.1473 7.01713 30.9923 6.29073 31.9225 6.29073C32.1372 6.29073 33.7536 6.28733 33.7536 6.28733L34.6676 4.54553C34.6676 4.54553 32.6383 4.59153 31.695 4.59153C29.5396 4.62893 28.0837 6.57993 28.0837 8.94953C28.0837 11.7101 29.5037 12.9281 31.451 12.9281ZM31.4624 8.79453C32.1617 8.79453 32.6466 9.25213 32.6466 10.0345C32.6466 10.7387 32.2158 11.3189 31.4624 11.3205C30.7418 11.3205 30.257 10.7829 30.257 10.0465C30.257 9.26393 30.7418 8.79453 31.4624 8.79453Z" fill="black"/>
<path d="M26.3717 10.7538C26.3717 10.7538 25.8748 11.039 25.1327 11.093C24.2796 11.1182 23.5194 10.5816 23.5194 9.62824C23.5194 8.69824 24.1902 8.16524 25.1112 8.16524C25.676 8.16524 26.4231 8.55504 26.4231 8.55504C26.4231 8.55504 26.9698 7.55604 27.253 7.05644C26.7344 6.66504 26.0437 6.45044 25.2404 6.45044C23.2129 6.45044 21.6426 7.76684 21.6426 9.61644C21.6426 11.4896 23.1185 12.7754 25.2404 12.7366C25.8334 12.7146 26.6516 12.5072 27.1503 12.1882L26.3717 10.7538Z" fill="black"/>
<path d="M0.5 5.224L3.41856 10.419V13.5878L0.503414 18.7726L0.5 5.224Z" fill="#5B57A2"/>
<path d="M11.7061 8.52865L14.4408 6.85945L20.0378 6.85425L11.7061 11.937V8.52865Z" fill="#D90751"/>
<path d="M11.6902 5.1934L11.7057 12.0714L8.78027 10.2814V0L11.6902 5.1934Z" fill="#FAB718"/>
<path d="M20.0374 6.8542L14.4403 6.8594L11.6902 5.1934L8.78027 0L20.0374 6.8542Z" fill="#ED6F26"/>
<path d="M11.7057 18.8015V15.4645L8.78027 13.7085L8.78188 24.0001L11.7057 18.8015Z" fill="#63B22F"/>
<path d="M14.4341 17.1474L3.41836 10.419L0.5 5.224L20.026 17.1406L14.4341 17.1474Z" fill="#1487C9"/>
<path d="M8.78223 24L11.7056 18.8014L14.4336 17.1474L20.0255 17.1406L8.78223 24Z" fill="#017F36"/>
<path d="M0.50293 18.7726L8.80412 13.7086L6.01329 12.0034L3.41808 13.5878L0.50293 18.7726Z" fill="#984995"/>
<path d="M23.52 16.6674C23.4557 16.749 23.3711 16.8106 23.2697 16.8522C23.1657 16.8944 23.0543 16.9158 22.942 16.9154C22.8302 16.9169 22.7191 16.8983 22.614 16.8606C22.5196 16.8264 22.4333 16.7732 22.3605 16.7042C22.2887 16.6351 22.2323 16.5516 22.195 16.4594C22.1547 16.3583 22.1346 16.2503 22.1358 16.1416C22.1358 16.0336 22.1545 15.9336 22.1932 15.8388C22.2304 15.7438 22.2844 15.6624 22.3521 15.594C22.4198 15.5242 22.5009 15.471 22.5921 15.4294C22.6851 15.3894 22.7865 15.3678 22.898 15.3678C23.0181 15.3678 23.1295 15.3828 23.231 15.4126C23.3324 15.4426 23.4185 15.4926 23.4894 15.5626L23.3661 15.7706C23.3065 15.7167 23.2362 15.6759 23.1599 15.6506C23.0873 15.6273 23.0114 15.6155 22.9351 15.6158C22.8676 15.6158 22.8034 15.629 22.7409 15.654C22.6794 15.6787 22.6231 15.7148 22.5752 15.7606C22.5263 15.8076 22.4877 15.8643 22.462 15.927C22.4332 15.9918 22.4198 16.0634 22.4198 16.1432C22.4198 16.2248 22.4348 16.298 22.4636 16.3612C22.4925 16.4262 22.5312 16.4812 22.5802 16.5276C22.6293 16.5744 22.6867 16.6092 22.7526 16.6326C22.8186 16.6576 22.8879 16.6692 22.9622 16.6692C23.0534 16.6692 23.1364 16.6508 23.2073 16.6158C23.2775 16.582 23.3406 16.5351 23.3932 16.4778L23.52 16.6674ZM23.868 16.8804V15.3994H24.1351V16.5028L25.0037 15.3994H25.2709V16.8806H25.0037V15.7772L24.1351 16.8806L23.868 16.8804ZM27.0402 16.6674C26.9745 16.7497 26.8883 16.8134 26.7902 16.8522C26.6861 16.8943 26.5746 16.9158 26.4622 16.9154C26.3505 16.9169 26.2395 16.8983 26.1345 16.8606C26.04 16.8264 25.9536 16.7732 25.8808 16.7042C25.809 16.6351 25.7526 16.5516 25.7153 16.4594C25.675 16.3583 25.6548 16.2503 25.6561 16.1416C25.6561 16.0336 25.6747 15.9336 25.7135 15.8388C25.7509 15.7438 25.8049 15.6624 25.8724 15.594C25.94 15.5242 26.0212 15.471 26.1124 15.4294C26.2087 15.3871 26.313 15.3661 26.4182 15.3678C26.5383 15.3678 26.6498 15.3828 26.7512 15.4126C26.8527 15.4426 26.9388 15.4926 27.0099 15.5626L26.8864 15.7706C26.8268 15.7167 26.7567 15.6758 26.6803 15.6506C26.6077 15.6273 26.5319 15.6155 26.4556 15.6158C26.3213 15.6162 26.1924 15.668 26.0955 15.7606C26.047 15.808 26.0085 15.8645 25.9822 15.927C25.9535 15.9918 25.94 16.0634 25.94 16.1432C25.94 16.2248 25.9553 16.298 25.984 16.3612C26.0127 16.4262 26.0515 16.4812 26.1005 16.5276C26.1495 16.5744 26.2072 16.6092 26.273 16.6326C26.3389 16.6558 26.4082 16.6692 26.4825 16.6692C26.5739 16.6692 26.655 16.6508 26.7275 16.6158C26.7978 16.582 26.8609 16.5351 26.9135 16.4778L27.0402 16.6674ZM27.1772 15.3994H28.5477V15.6624H27.9968V16.8804H27.7297V15.6624H27.1788V15.3994H27.1772Z" fill="black"/>
<path fill-rule="evenodd" clip-rule="evenodd" d="M29.7952 16.8656C29.8966 16.834 29.9828 16.7856 30.0571 16.7192L29.9759 16.5128C29.9269 16.5562 29.8611 16.5928 29.7817 16.6228C29.7022 16.6528 29.6126 16.6676 29.5146 16.6676C29.3676 16.6676 29.2459 16.6294 29.1495 16.5512C29.0533 16.4728 29.0009 16.3632 28.989 16.2232H30.145C30.1569 16.1716 30.1619 16.1134 30.1619 16.0452C30.1619 15.9436 30.1432 15.8522 30.1061 15.769C30.0715 15.6882 30.021 15.6152 29.9575 15.5542C29.8931 15.4938 29.8172 15.4469 29.7343 15.4162C29.6476 15.3827 29.5553 15.3657 29.4622 15.3662C29.3371 15.3662 29.2272 15.3878 29.131 15.4278C29.0401 15.4659 28.9578 15.522 28.8892 15.5926C28.8226 15.6629 28.7715 15.7462 28.739 15.8372C28.7033 15.9342 28.6855 16.0368 28.6866 16.14C28.6866 16.2566 28.7069 16.363 28.744 16.458C28.7802 16.55 28.8355 16.6334 28.9063 16.7026C28.9756 16.7706 29.0599 16.8224 29.1597 16.859C29.2666 16.8968 29.3794 16.9153 29.4927 16.9138C29.5954 16.9132 29.6974 16.8968 29.7952 16.8656ZM29.1192 15.7256C29.2019 15.6508 29.3118 15.6142 29.4504 15.6142C29.5805 15.6142 29.6853 15.6492 29.7614 15.7192C29.8376 15.789 29.8779 15.8856 29.8848 16.0086H28.9722C28.9851 15.8997 29.0373 15.799 29.1192 15.7256Z" fill="black"/>
<path d="M30.5244 15.3994H30.7678L31.3458 16.1334L31.8933 15.3994H32.1299V16.8806H31.863V15.8006L31.3424 16.4878H31.3322L30.7915 15.8004V16.8804H30.5244V15.3994Z" fill="black"/>
<path fill-rule="evenodd" clip-rule="evenodd" d="M32.8572 15.4042C32.7762 15.4253 32.6987 15.4584 32.6275 15.5022L32.6984 15.7122C32.7592 15.6822 32.8201 15.6572 32.8809 15.6356C32.9418 15.6138 33.0195 15.6038 33.1125 15.6038C33.1868 15.6038 33.246 15.6156 33.2916 15.6388C33.3372 15.6604 33.371 15.6938 33.3947 15.7338C33.4184 15.7738 33.4336 15.8236 33.4421 15.8818C33.4505 15.94 33.4539 16.0032 33.4539 16.0716C33.3993 16.0337 33.337 16.0081 33.2713 15.9966C33.2079 15.9841 33.1434 15.9774 33.0787 15.9766C32.9992 15.9766 32.9249 15.9884 32.8538 16.0082C32.7829 16.0282 32.7221 16.0582 32.6731 16.0982C32.623 16.1382 32.5826 16.1887 32.5548 16.2462C32.525 16.3092 32.5099 16.3781 32.5108 16.4476C32.5108 16.5924 32.5532 16.7056 32.6375 16.7856C32.7221 16.8654 32.8335 16.9052 32.9721 16.9052C33.0972 16.9052 33.197 16.8836 33.2729 16.8404C33.3491 16.797 33.4099 16.7472 33.4539 16.6906V16.882H33.7039V15.9734C33.7039 15.7802 33.6618 15.6306 33.5756 15.5256C33.4911 15.4208 33.3406 15.3676 33.1277 15.3676C33.033 15.3676 32.9434 15.3808 32.8572 15.4042ZM33.3037 16.6042C33.2428 16.6474 33.1633 16.6672 33.0653 16.6672C32.9791 16.6672 32.9114 16.6456 32.8642 16.604C32.8168 16.5608 32.7932 16.5042 32.7932 16.4342C32.7932 16.3928 32.8016 16.3578 32.8203 16.3262C32.8389 16.2946 32.8642 16.2696 32.893 16.2496C32.9244 16.2287 32.9593 16.2135 32.996 16.2046C33.035 16.1946 33.0737 16.1896 33.1143 16.1896C33.2462 16.1896 33.3593 16.2212 33.4523 16.2878V16.4758C33.4085 16.5247 33.3585 16.568 33.3037 16.6042ZM36.0618 14.8782C36.1158 14.8534 36.1664 14.8118 36.2138 14.7502L36.0684 14.5422C36.0312 14.5922 35.9891 14.627 35.9417 14.6454C35.8914 14.665 35.8394 14.6795 35.7862 14.6886L35.7356 14.6976C35.6916 14.7052 35.6444 14.7136 35.5936 14.722C35.5121 14.737 35.4327 14.7616 35.357 14.7952C35.2369 14.8468 35.1407 14.9166 35.068 15.0048C34.9953 15.093 34.9379 15.1928 34.8989 15.3028C34.8595 15.4143 34.8328 15.5298 34.8196 15.6472C34.8059 15.7672 34.7993 15.8818 34.7993 15.9916C34.7993 16.1332 34.8178 16.2612 34.8549 16.376C34.8923 16.491 34.9445 16.5874 35.0138 16.6656C35.0831 16.7456 35.166 16.8056 35.264 16.8488C35.3621 16.892 35.4719 16.9136 35.5952 16.9136C35.7085 16.9136 35.8133 16.892 35.9079 16.852C35.9991 16.8136 36.0818 16.7577 36.1513 16.6874C36.2188 16.619 36.2731 16.5374 36.3102 16.446C36.349 16.3544 36.3676 16.2562 36.3676 16.153C36.3676 16.0416 36.3508 15.9402 36.3186 15.8502C36.289 15.7644 36.2419 15.6857 36.1801 15.619C36.1181 15.5535 36.0425 15.5023 35.9585 15.469C35.866 15.4328 35.7673 15.4147 35.6679 15.4158C35.6037 15.4158 35.5412 15.4242 35.4803 15.4408C35.4212 15.4575 35.3643 15.4815 35.3112 15.5124C35.2597 15.5418 35.2126 15.5782 35.1711 15.6204C35.1305 15.6622 35.0967 15.7088 35.073 15.762H35.0662C35.0714 15.6938 35.0799 15.624 35.0949 15.5524C35.1102 15.4808 35.1321 15.4124 35.161 15.3476C35.1897 15.2828 35.2269 15.2244 35.2725 15.1712C35.3214 15.1175 35.3813 15.075 35.4482 15.0464C35.5218 15.0115 35.5996 14.9864 35.6798 14.9716L35.7328 14.962C35.7856 14.9524 35.836 14.9432 35.8842 14.9332C35.9485 14.92 36.0075 14.903 36.0618 14.8782ZM35.1221 16.3012C35.0959 16.2172 35.0834 16.1296 35.0849 16.0416C35.0962 15.9912 35.1169 15.9432 35.1458 15.9002C35.1745 15.8552 35.2116 15.8154 35.2556 15.7802C35.3549 15.7028 35.4776 15.6612 35.6037 15.6622C35.7609 15.6622 35.8792 15.7104 35.962 15.8054C36.0449 15.9018 36.0855 16.0216 36.0855 16.1664C36.0855 16.238 36.0718 16.303 36.0483 16.3628C36.0255 16.4218 35.991 16.4756 35.9468 16.5211C35.9027 16.5665 35.8499 16.6027 35.7914 16.6274C35.7306 16.654 35.6645 16.6674 35.5902 16.6674C35.5159 16.6674 35.4482 16.6524 35.3858 16.6224C35.3237 16.593 35.2688 16.5504 35.2251 16.4976C35.1793 16.4388 35.1444 16.3723 35.1221 16.3012ZM38.416 15.3992H38.1489V16.8804H38.416V15.3992ZM36.7528 15.3992H37.02V15.8436H37.2668C37.3833 15.8436 37.4779 15.8586 37.554 15.8868C37.6301 15.9152 37.691 15.9534 37.7365 16C37.7821 16.0466 37.8143 16.1016 37.833 16.163C37.8514 16.2246 37.8617 16.2878 37.8617 16.3544C37.8617 16.421 37.8514 16.4844 37.8295 16.5476C37.8093 16.6108 37.7737 16.6656 37.7263 16.7156C37.6791 16.7656 37.6148 16.8056 37.5337 16.8356C37.4526 16.8654 37.3546 16.882 37.2363 16.882H36.7512V15.3992H36.7528ZM37.02 16.0914V16.634H37.2144C37.3479 16.634 37.4425 16.6108 37.4965 16.564C37.5508 16.5174 37.5777 16.451 37.5777 16.3628C37.5777 16.2728 37.549 16.2048 37.4949 16.158C37.4391 16.1114 37.3461 16.088 37.2178 16.088H37.02V16.0914Z" fill="black"/>
<path d="M40.1818 16.6674C40.1176 16.749 40.033 16.8106 39.9316 16.8522C39.8275 16.8943 39.7162 16.9158 39.6038 16.9154C39.4921 16.9169 39.381 16.8983 39.2759 16.8606C39.1814 16.8265 39.0951 16.7732 39.0224 16.7042C38.9506 16.635 38.8941 16.5516 38.8567 16.4594C38.8165 16.3583 38.7965 16.2503 38.7977 16.1416C38.7977 16.0336 38.8161 15.9336 38.8551 15.8388C38.8923 15.7438 38.9463 15.6624 39.014 15.594C39.0816 15.5242 39.1626 15.471 39.254 15.4294C39.3503 15.3871 39.4546 15.3661 39.5598 15.3678C39.6797 15.3678 39.7914 15.3828 39.8928 15.4126C39.9942 15.4426 40.0804 15.4926 40.1513 15.5626L40.028 15.7706C39.9683 15.7167 39.8981 15.6759 39.8217 15.6506C39.7491 15.6273 39.6733 15.6155 39.597 15.6158C39.5295 15.6158 39.4652 15.629 39.4026 15.654C39.3411 15.6787 39.2849 15.7148 39.2371 15.7606C39.1885 15.8079 39.15 15.8645 39.1238 15.927C39.0951 15.9918 39.0816 16.0634 39.0816 16.1432C39.0816 16.2248 39.0967 16.298 39.1254 16.3612C39.1541 16.4262 39.1931 16.4812 39.2421 16.5276C39.2911 16.5744 39.3486 16.6092 39.4144 16.6326C39.4805 16.6558 39.5498 16.6692 39.6241 16.6692C39.7153 16.6692 39.7964 16.6508 39.8691 16.6158C39.9394 16.582 40.0025 16.5351 40.0551 16.4778L40.1818 16.6674ZM40.3186 15.3994H41.6893V15.6624H41.1382V16.8804H40.8713V15.6624H40.3204V15.3994H40.3186Z" fill="black"/>
<path fill-rule="evenodd" clip-rule="evenodd" d="M42.2466 15.3995H41.9795V17.5395H42.2466V16.8123C42.3006 16.8473 42.3649 16.8723 42.4392 16.8889C42.5135 16.9055 42.5912 16.9137 42.6708 16.9137C42.7891 16.9137 42.8955 16.8921 42.9919 16.8523C43.0844 16.8129 43.1682 16.7558 43.2385 16.6843C43.3078 16.6125 43.3602 16.5293 43.3974 16.4311C43.4346 16.3331 43.4532 16.2281 43.4532 16.1167C43.4532 16.0067 43.4364 15.9053 43.4042 15.8137C43.374 15.7267 43.3269 15.6464 43.2657 15.5775C43.2056 15.5102 43.131 15.4573 43.0475 15.4227C42.9563 15.3836 42.8578 15.3643 42.7585 15.3661C42.6539 15.3661 42.5559 15.3861 42.4629 15.4261C42.3699 15.4661 42.2972 15.5141 42.2466 15.5741V15.3995ZM42.4326 15.6741C42.5087 15.6341 42.5914 15.6141 42.681 15.6141C42.7587 15.6141 42.828 15.6257 42.8907 15.6507C42.9515 15.6757 43.0022 15.7107 43.0445 15.7573C43.0867 15.8039 43.1188 15.8573 43.1391 15.9203C43.161 15.9835 43.1713 16.0519 43.1713 16.1267C43.1713 16.2067 43.1576 16.2781 43.1341 16.3447C43.112 16.4078 43.0768 16.4657 43.0309 16.5145C42.9847 16.5627 42.9289 16.6007 42.867 16.6259C42.798 16.6547 42.7237 16.6688 42.6489 16.6675C42.5764 16.6675 42.5087 16.6593 42.4444 16.6427C42.3741 16.6236 42.3073 16.5932 42.2468 16.5527V15.8187C42.294 15.7623 42.3567 15.7141 42.4326 15.6741ZM45.5016 15.3993H45.2345V16.8805H45.5016V15.3993ZM43.8368 15.3993H44.1039V15.8437H44.3506C44.4673 15.8437 44.5619 15.8587 44.638 15.8869C44.7141 15.9153 44.7749 15.9535 44.8205 16.0001C44.8661 16.0467 44.8983 16.1017 44.9167 16.1631C44.9354 16.2247 44.9455 16.2879 44.9455 16.3545C44.9455 16.4211 44.9354 16.4845 44.9135 16.5477C44.8932 16.6109 44.8577 16.6657 44.8103 16.7157C44.7631 16.7657 44.6988 16.8057 44.6177 16.8357C44.5365 16.8655 44.4385 16.8821 44.3202 16.8821H43.8352V15.3993H43.8368ZM44.1058 16.0915V16.6341H44.3002C44.4335 16.6341 44.5283 16.6109 44.5823 16.5641C44.6364 16.5175 44.6635 16.4511 44.6635 16.3629C44.6635 16.2729 44.6348 16.2049 44.5807 16.1581C44.5249 16.1115 44.4319 16.0881 44.3036 16.0881H44.1058V16.0915Z" fill="black"/>
<path d="M46.7832 16.1133L47.3544 16.8805H47.0266L46.5854 16.2813L46.1375 16.8805H45.8266L46.3944 16.1265L45.8604 15.3993H46.1884L46.5957 15.9585L47.0096 15.3993H47.3207L46.7832 16.1133ZM23.3221 18.7111H22.5025V19.9459H22.2354V18.4649H23.589V19.9459H23.3221V18.7111ZM25.1049 18.7277H24.5777L24.5606 18.9773C24.5422 19.1887 24.5169 19.3585 24.4813 19.4881C24.4458 19.6181 24.4018 19.7179 24.3512 19.7877C24.3006 19.8577 24.2413 19.9059 24.1736 19.9293C24.1038 19.9545 24.03 19.9669 23.9557 19.9659L23.9354 19.7095C23.9642 19.7111 23.9979 19.7045 24.0351 19.6879C24.0724 19.6713 24.1096 19.6347 24.1449 19.5799C24.1805 19.5231 24.2126 19.4433 24.2413 19.3401C24.27 19.2353 24.2887 19.0989 24.2987 18.9273L24.3259 18.4663H25.372V19.9475H25.1049V18.7277Z" fill="black"/>
<path fill-rule="evenodd" clip-rule="evenodd" d="M26.0916 18.4682C26.0052 18.4914 25.9275 18.5246 25.8616 18.5662L25.9327 18.776C25.9936 18.746 26.0544 18.721 26.1151 18.6994C26.1759 18.6778 26.2539 18.6678 26.3467 18.6678C26.4212 18.6678 26.4802 18.6794 26.5258 18.7026C26.5716 18.7244 26.6053 18.7576 26.629 18.7976C26.6525 18.8376 26.6678 18.8876 26.6762 18.9456C26.6847 19.004 26.6881 19.0672 26.6881 19.1354C26.6334 19.0976 26.5711 19.072 26.5055 19.0606C26.4421 19.0481 26.3776 19.0414 26.3129 19.0406C26.2336 19.0406 26.1591 19.0522 26.0882 19.0722C26.0171 19.0922 25.9562 19.1222 25.9072 19.1622C25.8572 19.2022 25.8168 19.2527 25.7889 19.3102C25.7592 19.3732 25.7443 19.4421 25.7452 19.5116C25.7452 19.6562 25.7873 19.7696 25.8719 19.8494C25.9562 19.9292 26.0679 19.9692 26.2065 19.9692C26.3316 19.9692 26.4312 19.9476 26.5073 19.9042C26.5832 19.861 26.6441 19.811 26.6881 19.7544V19.9458H26.9383V19.0372C26.9383 18.8442 26.8959 18.6944 26.8098 18.5896C26.7252 18.4846 26.5748 18.4316 26.3619 18.4316C26.2706 18.4317 26.1797 18.4442 26.0916 18.4682ZM26.5395 19.6678C26.4788 19.7112 26.3993 19.7312 26.3013 19.7312C26.2133 19.7312 26.1474 19.7096 26.1002 19.6678C26.0528 19.6246 26.0291 19.568 26.0291 19.4982C26.0291 19.4566 26.0376 19.4216 26.0562 19.39C26.0747 19.3584 26.1002 19.3334 26.129 19.3134C26.1577 19.2934 26.193 19.2784 26.232 19.2684C26.2706 19.2585 26.3104 19.2535 26.3503 19.2536C26.482 19.2536 26.5953 19.2852 26.6883 19.3516V19.5396C26.6444 19.5885 26.5944 19.6316 26.5395 19.6678Z" fill="black"/>
<path d="M27.2004 18.465H28.5712V18.7278H28.0201V19.946H27.7531V18.728H27.2022V18.465H27.2004Z" fill="black"/>
<path fill-rule="evenodd" clip-rule="evenodd" d="M29.8188 19.931C29.9202 19.8994 30.0064 19.851 30.0807 19.7846L29.9996 19.5782C29.9506 19.6216 29.8847 19.6582 29.8052 19.6882C29.7258 19.7182 29.6363 19.733 29.5382 19.733C29.3912 19.733 29.2695 19.6948 29.1731 19.6166C29.0767 19.5384 29.0245 19.4286 29.0127 19.2886H30.1687C30.1803 19.2372 30.1855 19.1788 30.1855 19.1106C30.1855 19.0092 30.1669 18.9176 30.1297 18.8344C30.0951 18.7536 30.0445 18.6806 29.9809 18.6198C29.9167 18.5593 29.8408 18.5123 29.758 18.4816C29.6712 18.4481 29.5789 18.4311 29.4858 18.4316C29.3607 18.4316 29.2509 18.4532 29.1547 18.4932C29.0636 18.5312 28.9814 18.5872 28.9128 18.658C28.8463 18.7283 28.795 18.8116 28.7624 18.9026C28.7268 18.9995 28.709 19.1021 28.71 19.2054C28.71 19.322 28.7303 19.4284 28.7674 19.5234C28.8048 19.6182 28.8604 19.6998 28.9297 19.768C28.999 19.8362 29.0836 19.8878 29.1834 19.9244C29.2902 19.9622 29.4028 19.9808 29.5162 19.9794C29.616 19.9794 29.7174 19.9626 29.8188 19.931ZM29.1412 18.7894C29.2239 18.7146 29.3338 18.678 29.4724 18.678C29.6043 18.678 29.7074 18.7146 29.7835 18.7828C29.8594 18.8528 29.9 18.9492 29.9068 19.0724H28.9942C29.0071 18.9634 29.0593 18.8628 29.1412 18.7894ZM30.3157 18.465H30.6537L31.169 19.179L30.6181 19.946H30.2904L30.8682 19.1788L30.3157 18.465ZM31.2349 18.465H31.502V19.946H31.2349V18.465ZM32.4568 19.946L31.8688 19.1788L32.418 18.4648H32.0867L31.5679 19.1788L32.1256 19.946H32.4568ZM33.6771 19.931C33.7785 19.8994 33.8647 19.851 33.939 19.7846L33.8578 19.5782C33.8088 19.6216 33.743 19.6582 33.6636 19.6882C33.5841 19.7182 33.4945 19.733 33.3965 19.733C33.2495 19.733 33.1278 19.6948 33.0314 19.6166C32.9352 19.5384 32.8828 19.4286 32.8709 19.2886H34.027C34.0388 19.2372 34.0438 19.1788 34.0438 19.1106C34.0438 19.0092 34.0253 18.9176 33.988 18.8344C33.9534 18.7536 33.9028 18.6807 33.8394 18.6198C33.7751 18.5593 33.6992 18.5123 33.6162 18.4816C33.5295 18.448 33.4372 18.4311 33.3441 18.4316C33.2192 18.4316 33.1093 18.4532 33.0129 18.4932C32.922 18.5312 32.8398 18.5873 32.7713 18.658C32.7046 18.7282 32.6534 18.8115 32.6209 18.9026C32.5852 18.9995 32.5674 19.1021 32.5685 19.2054C32.5685 19.322 32.5888 19.4284 32.6259 19.5234C32.6631 19.6182 32.7189 19.6998 32.7882 19.768C32.8575 19.8362 32.9418 19.8878 33.0416 19.9244C33.1485 19.9622 33.2612 19.9808 33.3746 19.9794C33.4773 19.9786 33.5793 19.9623 33.6771 19.931ZM32.9995 18.7894C33.0824 18.7146 33.1923 18.678 33.3308 18.678C33.461 18.678 33.5656 18.7146 33.6417 18.7828C33.7179 18.8528 33.7584 18.9492 33.7651 19.0724H32.8525C32.8653 18.9634 32.9176 18.8628 32.9995 18.7894ZM35.1273 17.9674C34.9701 17.9674 34.8839 17.8808 34.8705 17.7078H34.6186C34.6186 17.7742 34.6305 17.8342 34.6524 17.8908C34.6744 17.9474 34.7066 17.9956 34.7488 18.0356C34.7909 18.0756 34.8452 18.1072 34.9076 18.132C34.9701 18.157 35.0428 18.1686 35.1255 18.1686C35.2016 18.1686 35.2693 18.157 35.3302 18.132C35.391 18.1088 35.4416 18.0756 35.4856 18.0356C35.5278 17.9956 35.5617 17.9474 35.5852 17.8908C35.6089 17.8342 35.6208 17.7742 35.6208 17.7078H35.3708C35.3589 17.8808 35.276 17.9674 35.1273 17.9674ZM34.4055 18.4648V19.946H34.6726L35.5413 18.8426V19.946H35.8084V18.4648H35.5413L34.6726 19.5682V18.4648H34.4055Z" fill="black"/>
</g>
<defs>
<clipPath id="clip0_1_612">
<rect width="48" height="24" fill="white" transform="translate(0.5)"/>
</clipPath>
</defs>
</svg>
