<svg width="148" height="48" fill="none" xmlns="http://www.w3.org/2000/svg"><path d="M96.249.074C85.762.074 76.39 5.51 76.39 15.551c0 11.517 16.62 12.312 16.62 18.098 0 2.437-2.791 4.617-7.56 4.617-6.767 0-11.825-3.047-11.825-3.047l-2.164 10.135s5.826 2.574 13.561 2.574c11.465 0 20.488-5.703 20.488-15.917 0-12.17-16.69-12.941-16.69-18.31 0-1.91 2.292-4 7.046-4 5.365 0 9.741 2.216 9.741 2.216l2.119-9.787S102.963.074 96.247.074h.002zM.306.814L.052 2.29s4.411.807 8.385 2.419c5.117 1.846 5.48 2.922 6.343 6.26l9.389 36.196h12.587L56.146.813H43.589l-12.46 31.515-5.084-26.715C25.579 2.556 23.217.812 20.326.812H.308L.306.813zm60.89 0l-9.85 46.35H63.32L73.135.815H61.196zm66.787 0c-2.887 0-4.417 1.546-5.539 4.247L104.9 47.165h12.557l2.429-7.018h15.299l1.476 7.018h11.081L138.076.813h-10.093zm1.634 12.522l3.723 17.394h-9.972l6.25-17.393h-.001z" fill="#1434CB"/></svg>