<svg width="32" height="24" viewBox="0 0 32 24" fill="none" xmlns="http://www.w3.org/2000/svg">
<g clip-path="url(#clip0_1_636)">
<path d="M6.11848 23.9474V22.3547C6.11848 21.7454 5.74618 21.3464 5.10707 21.3464C4.78752 21.3464 4.44004 21.4516 4.20115 21.798C4.015 21.5072 3.74818 21.3464 3.34796 21.3464C3.08115 21.3464 2.81434 21.4268 2.60337 21.7176V21.399H2.04492V23.9474H2.60337V22.5402C2.60337 22.0887 2.84226 21.8753 3.21456 21.8753C3.58686 21.8753 3.773 22.1134 3.773 22.5402V23.9474H4.33145V22.5402C4.33145 22.0887 4.59826 21.8753 4.94264 21.8753C5.31494 21.8753 5.50109 22.1134 5.50109 22.5402V23.9474H6.11848ZM14.4021 21.399H13.4962V20.6289H12.9377V21.399H12.432V21.9031H12.9377V23.0722C12.9377 23.6567 13.1766 24 13.8157 24C14.0546 24 14.3214 23.9196 14.5076 23.8145L14.3463 23.3351C14.1849 23.4402 13.9988 23.4681 13.8654 23.4681C13.5986 23.4681 13.4931 23.3072 13.4931 23.0444V21.9031H14.399V21.399H14.4021ZM19.1427 21.3433C18.8231 21.3433 18.6091 21.5041 18.4757 21.7145V21.3959H17.9172V23.9444H18.4757V22.5093C18.4757 22.0856 18.6618 21.8444 19.0093 21.8444C19.1148 21.8444 19.2482 21.8722 19.3568 21.8969L19.5181 21.365C19.4064 21.3433 19.2482 21.3433 19.1427 21.3433ZM11.9791 21.6093C11.7123 21.4237 11.34 21.3433 10.9397 21.3433C10.3006 21.3433 9.87559 21.6619 9.87559 22.166C9.87559 22.5897 10.1951 22.831 10.7536 22.9083L11.0204 22.9361C11.312 22.9887 11.4734 23.0691 11.4734 23.2021C11.4734 23.3877 11.2593 23.5206 10.887 23.5206C10.5147 23.5206 10.22 23.3877 10.0338 23.2547L9.767 23.6784C10.0586 23.8918 10.4589 23.9969 10.8591 23.9969C11.6037 23.9969 12.0318 23.6505 12.0318 23.1743C12.0318 22.7227 11.6843 22.4846 11.1538 22.4042L10.887 22.3763C10.6481 22.3485 10.462 22.2959 10.462 22.1382C10.462 21.9526 10.6481 21.8474 10.9428 21.8474C11.2624 21.8474 11.582 21.9804 11.7433 22.0609L11.9791 21.6093ZM26.8369 21.3433C26.5173 21.3433 26.3032 21.5041 26.1698 21.7145V21.3959H25.6114V23.9444H26.1698V22.5093C26.1698 22.0856 26.356 21.8444 26.7034 21.8444C26.8089 21.8444 26.9423 21.8722 27.0509 21.8969L27.2123 21.3712C27.1037 21.3433 26.9454 21.3433 26.8369 21.3433ZM19.7011 22.6732C19.7011 23.4433 20.2348 24 21.06 24C21.4323 24 21.6991 23.9196 21.966 23.7093L21.6991 23.2578C21.4851 23.4186 21.2741 23.4959 21.0321 23.4959C20.5791 23.4959 20.2596 23.1773 20.2596 22.6732C20.2596 22.1938 20.5791 21.8753 21.0321 21.8505C21.271 21.8505 21.4851 21.931 21.6991 22.0887L21.966 21.6371C21.6991 21.4237 21.4323 21.3464 21.06 21.3464C20.2348 21.3433 19.7011 21.9031 19.7011 22.6732ZM24.8668 22.6732V21.399H24.3083V21.7176C24.1222 21.4794 23.8554 21.3464 23.5079 21.3464C22.7881 21.3464 22.2297 21.9031 22.2297 22.6732C22.2297 23.4433 22.7881 24 23.5079 24C23.8802 24 24.147 23.867 24.3083 23.6289V23.9474H24.8668V22.6732ZM22.816 22.6732C22.816 22.2217 23.1077 21.8505 23.5886 21.8505C24.0415 21.8505 24.3611 22.1969 24.3611 22.6732C24.3611 23.1248 24.0415 23.4959 23.5886 23.4959C23.1108 23.4681 22.816 23.1217 22.816 22.6732ZM16.1333 21.3433C15.3887 21.3433 14.8551 21.8753 14.8551 22.6701C14.8551 23.4681 15.3887 23.9969 16.1612 23.9969C16.5335 23.9969 16.9058 23.8918 17.2005 23.6505L16.9337 23.2516C16.7197 23.4124 16.4528 23.5176 16.1891 23.5176C15.8417 23.5176 15.4973 23.3567 15.4166 22.9083H17.306C17.306 22.8279 17.306 22.7753 17.306 22.6949C17.3309 21.8753 16.85 21.3433 16.1333 21.3433ZM16.1333 21.8227C16.4808 21.8227 16.7197 22.0361 16.7724 22.432H15.4414C15.4942 22.0887 15.7331 21.8227 16.1333 21.8227ZM30.0076 22.6732V20.3907H29.4491V21.7176C29.263 21.4794 28.9962 21.3464 28.6487 21.3464C27.9289 21.3464 27.3705 21.9031 27.3705 22.6732C27.3705 23.4433 27.9289 24 28.6487 24C29.021 24 29.2878 23.867 29.4491 23.6289V23.9474H30.0076V22.6732ZM27.9569 22.6732C27.9569 22.2217 28.2485 21.8505 28.7294 21.8505C29.1823 21.8505 29.5019 22.1969 29.5019 22.6732C29.5019 23.1248 29.1823 23.4959 28.7294 23.4959C28.2485 23.4681 27.9569 23.1217 27.9569 22.6732ZM9.26129 22.6732V21.399H8.70285V21.7176C8.5167 21.4794 8.24989 21.3464 7.90241 21.3464C7.18263 21.3464 6.62419 21.9031 6.62419 22.6732C6.62419 23.4433 7.18263 24 7.90241 24C8.27471 24 8.54152 23.867 8.70285 23.6289V23.9474H9.26129V22.6732ZM7.18573 22.6732C7.18573 22.2217 7.47737 21.8505 7.95825 21.8505C8.41121 21.8505 8.73077 22.1969 8.73077 22.6732C8.73077 23.1248 8.41121 23.4959 7.95825 23.4959C7.47737 23.4681 7.18573 23.1217 7.18573 22.6732Z" fill="black"/>
<path d="M20.1821 2.04431H11.793V17.0691H20.1821V2.04431Z" fill="#FF5A00"/>
<path d="M12.3515 9.5567C12.3515 6.50412 13.791 3.79485 16 2.04433C14.3743 0.770103 12.3236 0 10.0867 0C4.78763 0 0.5 4.27423 0.5 9.5567C0.5 14.8392 4.78763 19.1134 10.0867 19.1134C12.3236 19.1134 14.3743 18.3433 16 17.0691C13.7879 15.3433 12.3515 12.6093 12.3515 9.5567Z" fill="#EB001B"/>
<path d="M31.5 9.5567C31.5 14.8392 27.2124 19.1134 21.9133 19.1134C19.6764 19.1134 17.6257 18.3433 16 17.0691C18.2369 15.3155 19.6485 12.6093 19.6485 9.5567C19.6485 6.50412 18.209 3.79485 16 2.04433C17.6226 0.770103 19.6733 0 21.9102 0C27.2124 0 31.5 4.30206 31.5 9.5567Z" fill="#F79E1B"/>
</g>
<defs>
<clipPath id="clip0_1_636">
<rect width="31" height="24" fill="white" transform="translate(0.5)"/>
</clipPath>
</defs>
</svg>
