<svg width="32" height="24" fill="none" xmlns="http://www.w3.org/2000/svg"><g clip-path="url(#clip0_1_636)"><path d="M6.118 23.947v-1.592c0-.61-.372-1.009-1.01-1.009-.32 0-.668.106-.907.452-.186-.29-.453-.452-.853-.452a.859.859 0 00-.745.372v-.319h-.558v2.548h.558V22.54c0-.451.24-.665.612-.665s.558.238.558.665v1.407h.558V22.54c0-.451.267-.665.612-.665.372 0 .558.238.558.665v1.407h.617zm8.284-2.548h-.906v-.77h-.558v.77h-.506v.504h.506v1.17c0 .584.239.927.878.927.239 0 .505-.08.692-.186l-.162-.479a.896.896 0 01-.48.133c-.267 0-.373-.16-.373-.424v-1.14h.906v-.505h.003zm4.74-.056a.755.755 0 00-.666.372v-.32h-.559v2.55h.559v-1.436c0-.423.186-.665.533-.665.106 0 .24.028.348.053l.161-.532c-.112-.022-.27-.022-.375-.022zm-7.163.266c-.267-.185-.639-.266-1.04-.266-.638 0-1.063.319-1.063.823 0 .424.32.665.878.742l.266.028c.292.053.453.133.453.266 0 .186-.214.319-.586.319s-.667-.133-.853-.266l-.267.423c.292.214.692.319 1.092.319.745 0 1.173-.346 1.173-.823 0-.451-.348-.69-.878-.77l-.267-.028c-.239-.027-.425-.08-.425-.238 0-.185.186-.29.48-.29.32 0 .64.132.801.213l.236-.452zm14.858-.266a.756.756 0 00-.667.372v-.32h-.559v2.55h.559v-1.436c0-.423.186-.665.533-.665.106 0 .24.028.348.053l.161-.526c-.108-.028-.267-.028-.375-.028zm-7.136 1.33c0 .77.534 1.327 1.359 1.327.372 0 .64-.08.906-.29l-.267-.452c-.214.16-.425.238-.667.238-.453 0-.772-.319-.772-.823 0-.48.32-.798.772-.822.239 0 .453.08.667.238l.267-.452c-.267-.213-.534-.29-.906-.29-.825-.004-1.359.556-1.359 1.326zm5.166 0V21.4h-.559v.319c-.186-.239-.453-.372-.8-.372-.72 0-1.278.557-1.278 1.327 0 .77.558 1.327 1.278 1.327.372 0 .639-.133.8-.371v.318h.559v-1.274zm-2.051 0c0-.451.292-.822.773-.822.453 0 .772.346.772.822 0 .452-.32.823-.772.823-.478-.028-.773-.374-.773-.823zm-6.683-1.33c-.744 0-1.278.532-1.278 1.327 0 .798.534 1.327 1.306 1.327a1.63 1.63 0 001.04-.346l-.267-.4a1.27 1.27 0 01-.745.267c-.347 0-.692-.161-.772-.61h1.889v-.213c.025-.82-.456-1.352-1.173-1.352zm0 .48c.348 0 .587.213.64.609H15.44c.053-.343.292-.61.692-.61zm13.875.85v-2.282h-.559v1.327c-.186-.239-.453-.372-.8-.372-.72 0-1.279.557-1.279 1.327 0 .77.559 1.327 1.279 1.327.372 0 .639-.133.8-.371v.318h.559v-1.274zm-2.051 0c0-.451.291-.822.772-.822.453 0 .773.346.773.822 0 .452-.32.823-.773.823-.48-.028-.772-.374-.772-.823zm-18.696 0V21.4h-.558v.319c-.186-.239-.453-.372-.8-.372-.72 0-1.279.557-1.279 1.327 0 .77.559 1.327 1.278 1.327.373 0 .64-.133.8-.371v.318h.56v-1.274zm-2.075 0c0-.451.291-.822.772-.822.453 0 .773.346.773.822 0 .452-.32.823-.773.823-.48-.028-.772-.374-.772-.823z" fill="#000"/><path d="M20.182 2.044h-8.389V17.07h8.39V2.044z" fill="#FF5A00"/><path d="M12.351 9.557c0-3.053 1.44-5.762 3.649-7.513A9.554 9.554 0 0010.087 0C4.787 0 .5 4.274.5 9.557c0 5.282 4.288 9.556 9.587 9.556 2.237 0 4.287-.77 5.913-2.044a9.527 9.527 0 01-3.649-7.512z" fill="#EB001B"/><path d="M31.5 9.557c0 5.282-4.288 9.556-9.587 9.556A9.554 9.554 0 0116 17.07a9.494 9.494 0 003.648-7.512c0-3.053-1.439-5.762-3.648-7.513A9.539 9.539 0 0121.91 0c5.302 0 9.59 4.302 9.59 9.557z" fill="#F79E1B"/></g><defs><clipPath id="clip0_1_636"><path fill="#fff" transform="translate(.5)" d="M0 0h31v24H0z"/></clipPath></defs></svg>