<svg width="90" height="24" viewBox="0 0 90 24" fill="none" xmlns="http://www.w3.org/2000/svg">
<path fill-rule="evenodd" clip-rule="evenodd" d="M39.2949 11.6748L41.8501 11.2495L39.8388 10.2246L43.4257 0.663677C41.7816 0.230989 40.0547 -3.57102e-06 38.2748 -3.57102e-06C34.6517 -3.57102e-06 31.251 0.955442 28.3118 2.62629C28.0825 3.84592 27.9614 5.10391 27.9614 6.39077C27.9614 12.7065 30.8627 18.3431 35.405 22.0447L38.0425 15.0152L36.3299 15.3001L35.4524 15.4457L34.8844 14.7562L32.084 11.3503L31.519 10.6625L31.8302 9.83244L34.8314 1.83031C35.9381 1.61181 37.0815 1.49673 38.2516 1.49501L35.6593 8.4051L33.3459 8.02887L35.0314 10.079L36.6997 12.1071L36.7173 12.1041L39.2949 11.6748Z" fill="url(#paint0_radial_1_657)"/>
<path fill-rule="evenodd" clip-rule="evenodd" d="M34.0488 20.8337C34.4824 21.2569 34.9349 21.6616 35.4051 22.0447L36.1119 20.1601C35.4585 20.4031 34.7716 20.6281 34.0488 20.8337Z" fill="#216723"/>
<path fill-rule="evenodd" clip-rule="evenodd" d="M38.2741 24L38.0198 23.8548L42.2462 12.5906H42.2454L46.34 1.67692C46.9903 1.96092 47.6225 2.27767 48.2354 2.62632C48.4655 3.84552 48.5866 5.10394 48.5866 6.3908C48.5866 13.9521 44.4282 20.5415 38.2741 24Z" fill="url(#paint1_radial_1_657)"/>
<path fill-rule="evenodd" clip-rule="evenodd" d="M38.2741 24L38.0198 23.8548L40.1263 18.2397C47.4954 13.787 48.5444 7.12214 48.5797 6.88209C48.4043 14.2365 44.2946 20.6165 38.2741 24Z" fill="#2F63B6"/>
<path d="M84.4397 11.9765H87.9611C88.0382 11.5076 87.993 11.1576 87.8275 10.9292C87.6413 10.6728 87.2733 10.544 86.7234 10.544C86.0972 10.544 85.5839 10.6944 85.1848 10.9947C84.8758 11.227 84.6276 11.5541 84.4397 11.9765ZM86.9996 8.82311C88.2119 8.82311 89.0583 9.13815 89.5393 9.76994C90.0168 10.3979 90.106 11.3102 89.8065 12.5048C89.7677 12.6587 89.7186 12.8276 89.6608 13.0099C89.6022 13.194 89.5397 13.3724 89.4751 13.5426L89.3988 13.743H89.185H83.9531C83.923 13.9085 83.9079 14.0623 83.9079 14.2054C83.9079 14.5295 83.9885 14.7898 84.1492 14.9837C84.3147 15.1833 84.5729 15.3281 84.9245 15.416C85.1952 15.4837 85.5205 15.5181 85.8994 15.5181C86.329 15.5181 86.741 15.4936 87.1328 15.4457C87.5271 15.3975 87.9033 15.3246 88.2589 15.2294L88.7683 15.0924L88.6399 15.6048L88.3589 16.7218L88.3141 16.8989L88.1378 16.9464C87.7551 17.0489 87.3392 17.1265 86.8927 17.1778C86.4475 17.2286 85.9726 17.2545 85.4701 17.2545C84.0255 17.2545 83.0197 16.88 82.4542 16.1327C81.8918 15.3884 81.7893 14.302 82.1478 12.8746C82.4831 11.5378 83.0567 10.5289 83.8665 9.8501C84.6832 9.16573 85.7283 8.82311 86.9996 8.82311ZM68.0898 16.8679L70.0511 9.05841L70.1097 8.82311H71.5991L71.5935 9.13858L71.5862 9.5355C71.8969 9.35062 72.2085 9.20151 72.5183 9.08816C73.0028 8.91147 73.4837 8.82311 73.9595 8.82311C74.5753 8.82311 75.0766 8.92395 75.4627 9.12651C75.7536 9.27907 75.9768 9.48507 76.1337 9.74494C76.5582 9.47473 76.9732 9.26312 77.3779 9.11142V9.111C77.8895 8.91879 78.3825 8.82311 78.8548 8.82311C79.8628 8.82311 80.5606 9.11703 80.9476 9.7053C81.3221 10.2755 81.3747 11.1003 81.104 12.1773L79.8883 17.0187L79.8288 17.2545H79.587H78.211H77.8127L77.9101 16.8679L79.1453 11.9502C79.2056 11.7097 79.2358 11.4981 79.2358 11.3167C79.2358 11.1102 79.1966 10.9508 79.1181 10.8405C79.0466 10.7387 78.9311 10.6676 78.7725 10.6276C78.6712 10.6026 78.5514 10.5896 78.4122 10.5896C78.0868 10.5896 77.7511 10.665 77.4068 10.8155C77.0724 10.9615 76.7272 11.1779 76.3733 11.4628L74.9779 17.0187L74.9188 17.2545H74.6771H73.3006H72.9023L72.9997 16.8679L74.2289 11.973C74.3568 11.4641 74.3573 11.0973 74.2301 10.8749C74.1211 10.6853 73.8836 10.5896 73.5173 10.5896C73.1713 10.5896 72.8243 10.6655 72.477 10.8159C72.143 10.9603 71.8051 11.1762 71.4633 11.461L70.0675 17.0187L70.0084 17.2545H69.7666H68.3906H67.9924L68.0898 16.8679ZM63.662 13.6085C63.996 13.6085 64.3253 13.621 64.6489 13.6452C64.8588 13.6611 65.0691 13.6822 65.2781 13.7081L64.9851 14.8734C64.6472 15.0781 64.2943 15.2346 63.9271 15.3414C63.5237 15.4591 63.0966 15.5181 62.648 15.5181C62.4752 15.5181 62.3282 15.5031 62.2084 15.4725H62.2071C62.0619 15.4367 61.9567 15.3785 61.8934 15.3005C61.8343 15.2272 61.8042 15.1216 61.8042 14.985C61.8042 14.8825 61.8205 14.7661 61.8528 14.6377C62.0252 13.9516 62.6273 13.6085 63.662 13.6085ZM59.8691 14.5097C59.7937 14.8109 59.7558 15.0885 59.7558 15.3384C59.7558 15.8052 59.8842 16.1926 60.1398 16.4994C60.3902 16.8007 60.756 17.0119 61.2349 17.1321C61.5598 17.2136 61.9377 17.2545 62.3678 17.2545C62.8535 17.2545 63.3388 17.1855 63.8228 17.0485C64.1947 16.9438 64.5666 16.7977 64.9368 16.6115L65.0954 17.0494L65.1695 17.2545H65.3868H66.1612H66.403L66.4624 17.0187L67.8148 11.6339C68.0488 10.7008 67.8773 9.98974 67.3002 9.50318C66.7637 9.0498 65.8772 8.82311 64.6416 8.82311C64.2266 8.82311 63.7965 8.855 63.3539 8.91921C62.9117 8.98342 62.4592 9.0791 61.9968 9.20451L61.8218 9.25192L61.7774 9.42862L61.4964 10.5465L61.3667 11.0607L61.8787 10.9206C62.3161 10.8008 62.7445 10.7095 63.1613 10.6487C63.572 10.5888 63.9728 10.559 64.3619 10.559C64.7157 10.559 65.0097 10.5883 65.242 10.647C65.4691 10.7038 65.635 10.7866 65.7358 10.893C65.8212 10.9827 65.8643 11.1021 65.8643 11.2494C65.8643 11.3322 65.8518 11.4231 65.8272 11.5209L65.7104 11.9864C65.4673 11.9549 65.2221 11.9295 64.9748 11.9114C64.6326 11.8855 64.2882 11.8722 63.9422 11.8722C62.8273 11.8722 61.9287 12.089 61.2486 12.5221C60.5505 12.9664 60.0902 13.6297 59.8691 14.5097ZM58.0345 16.8197C57.5467 16.9895 57.0528 17.1166 56.5546 17.2006C56.0525 17.286 55.5457 17.3282 55.0346 17.3282C53.0108 17.3282 51.6002 16.8265 50.8064 15.8241C50.0117 14.8213 49.8587 13.347 50.3465 11.402C50.8029 9.5842 51.6351 8.21546 52.8418 7.29708C54.0468 6.37998 55.6142 5.921 57.5428 5.921C58.0858 5.921 58.6073 5.96022 59.1046 6.03779C59.6036 6.11536 60.0725 6.23216 60.5095 6.38601L60.7763 6.47997L60.7074 6.75406L60.4083 7.94438L60.3203 8.29517L59.9881 8.15597C59.5933 7.99048 59.1809 7.86594 58.7534 7.78319C58.3254 7.70088 57.8785 7.6595 57.4122 7.6595C56.0305 7.6595 54.9186 7.98229 54.077 8.62745C53.237 9.27044 52.6526 10.2466 52.3247 11.5528C51.9782 12.9345 52.0407 13.9563 52.513 14.6157C52.9793 15.2665 53.8735 15.5918 55.1957 15.5918C55.4147 15.5918 55.6478 15.5772 55.8935 15.5492H55.8948C56.0853 15.5276 56.2891 15.4966 56.5059 15.4569L57.3657 12.0338L57.4243 11.7989H57.6665H59.0425H59.4403L59.3433 12.1851L58.2336 16.6025L58.1931 16.7641L58.0345 16.8197ZM19.0279 8.82311H21.3974L21.4258 9.10323L21.8926 13.7874L24.7473 8.97567L24.8378 8.82311H25.0145H27.0684H27.6425L27.3283 9.30365L22.0662 17.3446H22.0654C21.5827 18.0785 21.0362 18.7081 20.4277 19.2313C19.8183 19.755 19.1447 20.1747 18.4074 20.4863L18.1302 20.6035L18.0057 20.3294L17.3911 18.9839L17.2554 18.6862L17.5601 18.5663C18.0126 18.3884 18.4263 18.1513 18.7978 17.8596C19.1408 17.5898 19.4499 17.2709 19.7222 16.9063L18.7207 9.17263L18.675 8.82311H19.0279ZM14.6071 13.9167L14.4054 14.7196C14.1326 14.8773 13.8615 14.998 13.5931 15.0807C13.2953 15.1725 12.997 15.2186 12.6988 15.2186C12.3945 15.2186 12.195 15.1665 12.1028 15.063H12.1015C12.0205 14.9725 12.0101 14.8053 12.0705 14.564C12.1924 14.0766 12.6484 13.8318 13.4345 13.8318C13.7124 13.8318 13.9727 13.8438 14.2132 13.8667C14.3477 13.8796 14.4787 13.8964 14.6071 13.9167ZM9.49285 14.436C9.26186 15.3552 9.37261 16.0599 9.82469 16.5469C10.2617 17.0188 11.0025 17.2545 12.0467 17.2545C12.4803 17.2545 12.9156 17.1916 13.3496 17.0662C13.6978 16.9657 14.0425 16.8257 14.3817 16.6477L14.7442 17.1291L14.8381 17.2545H14.992H16.137H16.3788L16.4378 17.0187L17.7536 11.7812C17.8273 11.4869 17.8643 11.2141 17.8643 10.9641C17.8643 10.4517 17.7135 10.0264 17.4123 9.68676C17.1209 9.35836 16.6951 9.12393 16.1366 8.98343C15.7095 8.87698 15.2036 8.82311 14.6179 8.82311C14.1839 8.82311 13.7124 8.855 13.2052 8.91921C12.7079 8.98256 12.1773 9.07738 11.6171 9.20192L11.4287 9.24374L11.3826 9.42862L10.9896 10.9935L10.8668 11.4817L11.3585 11.371C11.9019 11.2486 12.4131 11.1563 12.8906 11.0956C13.3612 11.0361 13.8068 11.006 14.2253 11.006C14.4563 11.006 14.6489 11.0253 14.801 11.0628V11.0633C14.9506 11.1008 15.0592 11.1551 15.1234 11.2249C15.1747 11.2809 15.201 11.3585 15.201 11.4567C15.201 11.521 15.1915 11.5916 15.1721 11.6683L15.0945 11.9769C14.9282 11.9506 14.7584 11.9291 14.5864 11.9127C14.3106 11.886 14.0382 11.8722 13.7706 11.8722C12.5855 11.8722 11.636 12.0812 10.9237 12.4984C10.1863 12.9298 9.70834 13.5767 9.49285 14.436ZM0.117231 16.8679L2.78835 6.23259L2.84739 5.99684H7.85002C9.03259 5.99684 9.86478 6.2843 10.3453 6.85748C10.8306 7.43756 10.9349 8.27837 10.6586 9.37949C10.3686 10.5358 9.73807 11.4645 8.76926 12.1644C7.82028 12.85 6.54894 13.3112 4.95825 13.5465L4.57038 13.6038L4.60529 13.2125L4.76087 11.458L4.78242 11.2193L5.01729 11.1788C5.90766 11.0258 6.60238 10.7831 7.10057 10.4543C7.56946 10.1449 7.86252 9.75573 7.97931 9.28942C8.01767 9.13858 8.03662 9.00369 8.03662 8.8856C8.03662 8.74123 8.00689 8.62917 7.94871 8.55375L7.94784 8.55247C7.89052 8.47748 7.79313 8.42187 7.65953 8.38869C7.55825 8.36326 7.43456 8.35035 7.29062 8.35035H4.86904L2.69181 17.0187L2.63277 17.2545H2.39099H0.418474H0.0202637L0.117231 16.8679Z" fill="black"/>
<path fill-rule="evenodd" clip-rule="evenodd" d="M42.1221 4.13809C42.7013 1.23037 38.2516 1.49543 38.2516 1.49543L35.6593 8.40508L33.3455 8.02885L35.0318 10.0789L36.6997 12.1071L36.7173 12.104L39.2949 11.6748L41.8501 11.2494L39.8388 10.2246L42.1221 4.13809Z" fill="url(#paint2_radial_1_657)"/>
<path fill-rule="evenodd" clip-rule="evenodd" d="M42.1221 4.13818C42.7013 1.23047 38.2516 1.49552 38.2516 1.49552L37.7495 2.83452C41.2442 2.41347 42.1221 4.13818 42.1221 4.13818Z" fill="#308F30"/>
<path fill-rule="evenodd" clip-rule="evenodd" d="M29.468 8.16848L31.5185 10.6625L31.8301 9.83243L34.8313 1.8303C35.938 1.6118 37.0814 1.49716 38.2514 1.49544C38.2514 1.49544 42.7011 1.23039 42.1219 4.1381L43.4252 0.664106C41.7815 0.230987 40.0546 -1.62775e-05 38.2747 -1.62775e-05C34.6512 -1.62775e-05 31.2508 0.954998 28.3121 2.62628C28.2561 2.92192 28.2069 3.21971 28.1643 3.51966C27.9186 5.24481 28.3612 6.82258 29.468 8.16848Z" fill="url(#paint3_radial_1_657)"/>
<path fill-rule="evenodd" clip-rule="evenodd" d="M29.4679 8.16848L31.5185 10.6625L31.8301 9.83243L32.4304 8.23184C28.6556 6.66873 28.11 4.05191 28.11 4.05191C28.0178 5.56977 28.4763 6.96221 29.4679 8.16848Z" fill="#308F30"/>
<defs>
<radialGradient id="paint0_radial_1_657" cx="0" cy="0" r="1" gradientUnits="userSpaceOnUse" gradientTransform="translate(34.1471 5.07029) scale(14.0288 14.0288)">
<stop stop-color="white"/>
<stop offset="0.27" stop-color="#99D420"/>
<stop offset="0.54" stop-color="#77C528"/>
<stop offset="1" stop-color="#237A2C"/>
</radialGradient>
<radialGradient id="paint1_radial_1_657" cx="0" cy="0" r="1" gradientUnits="userSpaceOnUse" gradientTransform="translate(43.8318 3.01635) scale(20.2465 20.2465)">
<stop stop-color="white"/>
<stop offset="0.19" stop-color="#78D2D2"/>
<stop offset="0.48" stop-color="#4493D6"/>
<stop offset="1" stop-color="#2B57AE"/>
</radialGradient>
<radialGradient id="paint2_radial_1_657" cx="0" cy="0" r="1" gradientUnits="userSpaceOnUse" gradientTransform="translate(33.7872 10.5146) scale(13.3815 13.3814)">
<stop stop-color="white"/>
<stop offset="0.27" stop-color="#99D420"/>
<stop offset="0.54" stop-color="#77C528"/>
<stop offset="1" stop-color="#237A2C"/>
</radialGradient>
<radialGradient id="paint3_radial_1_657" cx="0" cy="0" r="1" gradientUnits="userSpaceOnUse" gradientTransform="translate(36.2216 4.15836) scale(9.79608 9.79608)">
<stop stop-color="white"/>
<stop offset="0.27" stop-color="#99D420"/>
<stop offset="0.54" stop-color="#77C528"/>
<stop offset="1" stop-color="#237A2C"/>
</radialGradient>
</defs>
</svg>
