<svg width="24" height="25" viewBox="0 0 24 25" fill="none" xmlns="http://www.w3.org/2000/svg">
<g clip-path="url(#clip0_3_71)">
<path d="M12 0.5C8.81812 0.5 5.76375 1.76506 3.51562 4.01469C1.2652 6.26522 0.000643966 9.31734 0 12.5C0 15.6813 1.26562 18.7357 3.51562 20.9853C5.76375 23.2349 8.81812 24.5 12 24.5C15.1819 24.5 18.2362 23.2349 20.4844 20.9853C22.7344 18.7357 24 15.6813 24 12.5C24 9.31869 22.7344 6.26431 20.4844 4.01469C18.2362 1.76506 15.1819 0.5 12 0.5Z" fill="url(#paint0_linear_3_71)"/>
<path d="M5.4319 12.3732C8.93066 10.8492 11.2632 9.84448 12.4294 9.35898C15.7632 7.97279 16.455 7.73204 16.9069 7.72389C17.0063 7.72229 17.2275 7.74686 17.3719 7.86357C17.4919 7.96201 17.5257 8.09514 17.5425 8.18861C17.5575 8.28198 17.5782 8.49479 17.5613 8.66092C17.3813 10.5584 16.5994 15.163 16.2019 17.2884C16.035 18.1876 15.7032 18.4891 15.3825 18.5185C14.685 18.5827 14.1563 18.058 13.4813 17.6157C12.4257 16.9233 11.8294 16.4924 10.8038 15.8169C9.61878 15.0361 10.3875 14.6069 11.0625 13.9057C11.2388 13.7221 14.31 10.9293 14.3682 10.676C14.3757 10.6443 14.3832 10.5262 14.3119 10.4639C14.2425 10.4015 14.1394 10.4229 14.0644 10.4397C13.9575 10.4637 12.2719 11.579 9.0019 13.7853C8.52378 14.1142 8.09066 14.2745 7.70065 14.266C7.27315 14.2569 6.44816 14.0238 5.83503 13.8247C5.08503 13.5804 4.4869 13.4512 4.5394 13.0362C4.56565 12.8202 4.86378 12.5992 5.4319 12.3732Z" fill="white"/>
</g>
<defs>
<linearGradient id="paint0_linear_3_71" x1="1200" y1="0.5" x2="1200" y2="2400.5" gradientUnits="userSpaceOnUse">
<stop stop-color="#2AABEE"/>
<stop offset="1" stop-color="#229ED9"/>
</linearGradient>
<clipPath id="clip0_3_71">
<rect width="24" height="24" fill="white" transform="translate(0 0.5)"/>
</clipPath>
</defs>
</svg>
