<svg width="90" height="24" fill="none" xmlns="http://www.w3.org/2000/svg"><path fill-rule="evenodd" clip-rule="evenodd" d="M39.295 11.675l2.555-.426-2.011-1.024L43.426.664A20.217 20.217 0 0038.275 0a20.1 20.1 0 00-9.963 2.626c-.23 1.22-.35 2.478-.35 3.765 0 6.316 2.9 11.952 7.443 15.654l2.637-7.03-1.712.285-.878.146-.568-.69-2.8-3.406-.565-.688.311-.83 3.001-8.002a17.779 17.779 0 013.42-.335l-2.592 6.91-2.313-.376 1.685 2.05 1.669 2.028.017-.003 2.578-.43z" fill="url(#paint0_radial_1_657)"/><path fill-rule="evenodd" clip-rule="evenodd" d="M34.049 20.834c.433.423.886.828 1.356 1.21l.707-1.884a27.5 27.5 0 01-2.063.674z" fill="#216723"/><path fill-rule="evenodd" clip-rule="evenodd" d="M38.274 24l-.254-.145 4.226-11.264L46.34 1.677c.65.284 1.282.6 1.895.95.23 1.219.352 2.477.352 3.764 0 7.561-4.159 14.15-10.313 17.609z" fill="url(#paint1_radial_1_657)"/><path fill-rule="evenodd" clip-rule="evenodd" d="M38.274 24l-.254-.145 2.106-5.615c7.37-4.453 8.418-11.118 8.454-11.358-.176 7.354-4.285 13.734-10.306 17.118z" fill="#2F63B6"/><path d="M84.44 11.976h3.521c.077-.468.032-.818-.133-1.047-.187-.256-.555-.385-1.105-.385-.626 0-1.14.15-1.538.45-.31.233-.557.56-.745.982zM87 8.823c1.212 0 2.058.315 2.54.947.477.628.566 1.54.266 2.735a10.358 10.358 0 01-.331 1.038l-.076.2h-5.446a2.6 2.6 0 00-.045.462c0 .325.08.585.241.779.166.2.424.344.775.432.271.068.596.102.975.102.43 0 .842-.024 1.234-.072.394-.048.77-.121 1.126-.217l.51-.137-.13.513-.28 1.117-.045.177-.176.047c-.383.103-.799.18-1.245.232-.445.05-.92.076-1.423.076-1.445 0-2.45-.374-3.016-1.121-.562-.745-.665-1.831-.306-3.258.335-1.337.909-2.346 1.719-3.025.816-.684 1.861-1.027 3.133-1.027zm-18.91 8.045l1.961-7.81.059-.235h1.49l-.006.316-.008.397c.31-.185.623-.334.932-.448a4.187 4.187 0 011.442-.265c.615 0 1.117.1 1.503.304.29.152.514.358.67.618a6.78 6.78 0 011.245-.634 4.195 4.195 0 011.477-.288c1.008 0 1.706.294 2.093.882.374.57.427 1.395.156 2.472l-1.216 4.842-.06.236h-2.015l.097-.387 1.235-4.918c.06-.24.09-.452.09-.633 0-.207-.038-.366-.117-.476a.574.574 0 00-.346-.213 1.515 1.515 0 00-.36-.038c-.325 0-.66.075-1.005.226-.335.145-.68.362-1.034.647l-1.395 5.556-.06.236h-2.016l.098-.387 1.229-4.895c.128-.509.128-.876.001-1.098-.109-.19-.346-.285-.713-.285-.346 0-.693.075-1.04.226-.334.144-.672.36-1.014.645l-1.395 5.558-.06.236h-2.016l.098-.387zm-4.428-3.26a13.236 13.236 0 011.616.1l-.293 1.165a4.42 4.42 0 01-1.058.468c-.403.118-.83.177-1.279.177a1.79 1.79 0 01-.44-.046.567.567 0 01-.315-.171.493.493 0 01-.089-.316c0-.102.017-.219.049-.347.172-.686.774-1.03 1.809-1.03zm-3.793.902a3.444 3.444 0 00-.113.828c0 .467.128.855.384 1.161.25.302.616.513 1.095.633.325.082.703.122 1.133.122.485 0 .97-.069 1.455-.206a6.2 6.2 0 001.114-.436l.158.437.075.206h1.233l.06-.236 1.352-5.385c.234-.933.062-1.644-.515-2.13-.536-.454-1.423-.68-2.658-.68a9.01 9.01 0 00-1.288.095c-.442.064-.895.16-1.357.286l-.175.047-.045.177-.28 1.117-.13.515.512-.14c.437-.12.866-.211 1.282-.272.411-.06.812-.09 1.2-.09.355 0 .649.03.881.088.227.057.393.14.494.246a.5.5 0 01.128.356c0 .083-.012.174-.037.272l-.117.465a13.681 13.681 0 00-1.768-.114c-1.115 0-2.013.217-2.693.65-.699.444-1.159 1.108-1.38 1.988zm-1.834 2.31a9.1 9.1 0 01-3 .508c-2.024 0-3.435-.502-4.229-1.504-.794-1.003-.947-2.477-.46-4.422.457-1.818 1.29-3.187 2.496-4.105 1.205-.917 2.772-1.376 4.7-1.376.544 0 1.065.04 1.563.117.499.077.968.194 1.405.348l.266.094-.069.274-.299 1.19-.088.351-.332-.139a6.27 6.27 0 00-1.235-.373 7.088 7.088 0 00-1.34-.123c-1.382 0-2.494.322-3.336.967-.84.643-1.424 1.62-1.752 2.926-.347 1.381-.284 2.403.188 3.063.466.65 1.36.976 2.683.976a6.2 6.2 0 00.698-.043c.191-.021.395-.052.612-.092l.86-3.423.058-.235h2.016l-.097.386-1.11 4.417-.04.162-.158.056zM19.028 8.823h2.37l.028.28.467 4.684 2.854-4.811.09-.153h2.806l-.314.48-5.262 8.042a8.964 8.964 0 01-1.638 1.886 7.66 7.66 0 01-2.02 1.255l-.278.117-.124-.274-.615-1.345-.136-.298.305-.12a4.897 4.897 0 002.162-1.66l-1.001-7.733-.046-.35h.353zm-4.42 5.094l-.203.803a3.956 3.956 0 01-.812.36 3.023 3.023 0 01-.894.139c-.304 0-.504-.053-.596-.156H12.1c-.08-.09-.09-.258-.03-.499.121-.487.577-.732 1.364-.732a8.2 8.2 0 01.778.035c.135.013.266.03.394.05zm-5.115.519c-.231.92-.12 1.624.332 2.11.437.473 1.178.709 2.222.709a4.68 4.68 0 001.303-.189c.348-.1.693-.24 1.032-.418l.362.481.094.125h1.541l.059-.235 1.316-5.238c.073-.294.11-.567.11-.817 0-.512-.15-.938-.452-1.277-.291-.329-.717-.563-1.275-.704a6.336 6.336 0 00-1.52-.16c-.433 0-.905.032-1.412.096-.497.064-1.028.158-1.588.283l-.188.042-.046.185-.393 1.564-.123.489.491-.111a16.449 16.449 0 011.533-.275c.47-.06.916-.09 1.334-.09.231 0 .424.02.576.057.15.038.258.092.322.162a.331.331 0 01.078.232.88.88 0 01-.029.211l-.078.309a8.473 8.473 0 00-1.324-.105c-1.184 0-2.134.21-2.846.626-.738.432-1.216 1.079-1.431 1.938zM.117 16.868L2.788 6.233l.06-.236H7.85c1.183 0 2.015.287 2.495.86.486.58.59 1.421.314 2.522a4.769 4.769 0 01-1.89 2.785c-.949.686-2.22 1.147-3.81 1.383l-.389.057.035-.391.156-1.755.021-.239.235-.04c.89-.153 1.585-.396 2.084-.725.468-.31.762-.698.878-1.165a1.66 1.66 0 00.058-.403.539.539 0 00-.088-.332l-.001-.002a.504.504 0 00-.288-.163 1.54 1.54 0 00-.37-.039H4.87l-2.178 8.67-.06.236H.02l.097-.387z" fill="#000"/><path fill-rule="evenodd" clip-rule="evenodd" d="M42.122 4.138c.58-2.908-3.87-2.643-3.87-2.643l-2.593 6.91-2.313-.376 1.686 2.05 1.668 2.028.017-.003 2.578-.43 2.555-.425-2.011-1.024 2.283-6.087z" fill="url(#paint2_radial_1_657)"/><path fill-rule="evenodd" clip-rule="evenodd" d="M42.122 4.138c.58-2.908-3.87-2.642-3.87-2.642l-.503 1.339c3.495-.422 4.373 1.303 4.373 1.303z" fill="#308F30"/><path fill-rule="evenodd" clip-rule="evenodd" d="M29.468 8.168l2.05 2.495.312-.83 3.001-8.003a17.778 17.778 0 013.42-.335s4.45-.265 3.87 2.643L43.426.664A20.193 20.193 0 0038.275 0a20.09 20.09 0 00-9.963 2.626 20.31 20.31 0 00-.148.894c-.245 1.725.197 3.303 1.304 4.648z" fill="url(#paint3_radial_1_657)"/><path fill-rule="evenodd" clip-rule="evenodd" d="M29.468 8.168l2.05 2.495.312-.83.6-1.601c-3.774-1.563-4.32-4.18-4.32-4.18-.092 1.518.366 2.91 1.358 4.116z" fill="#308F30"/><defs><radialGradient id="paint0_radial_1_657" cx="0" cy="0" r="1" gradientUnits="userSpaceOnUse" gradientTransform="translate(34.147 5.07) scale(14.0288)"><stop stop-color="#fff"/><stop offset=".27" stop-color="#99D420"/><stop offset=".54" stop-color="#77C528"/><stop offset="1" stop-color="#237A2C"/></radialGradient><radialGradient id="paint1_radial_1_657" cx="0" cy="0" r="1" gradientUnits="userSpaceOnUse" gradientTransform="translate(43.832 3.016) scale(20.2465)"><stop stop-color="#fff"/><stop offset=".19" stop-color="#78D2D2"/><stop offset=".48" stop-color="#4493D6"/><stop offset="1" stop-color="#2B57AE"/></radialGradient><radialGradient id="paint2_radial_1_657" cx="0" cy="0" r="1" gradientUnits="userSpaceOnUse" gradientTransform="matrix(13.3815 0 0 13.3814 33.787 10.515)"><stop stop-color="#fff"/><stop offset=".27" stop-color="#99D420"/><stop offset=".54" stop-color="#77C528"/><stop offset="1" stop-color="#237A2C"/></radialGradient><radialGradient id="paint3_radial_1_657" cx="0" cy="0" r="1" gradientUnits="userSpaceOnUse" gradientTransform="translate(36.222 4.158) scale(9.79608)"><stop stop-color="#fff"/><stop offset=".27" stop-color="#99D420"/><stop offset=".54" stop-color="#77C528"/><stop offset="1" stop-color="#237A2C"/></radialGradient></defs></svg>