<svg width="23" height="23" viewBox="0 0 23 23" fill="none" xmlns="http://www.w3.org/2000/svg">
<g clip-path="url(#clip0_1_606)">
<path d="M11.6409 0.220703C8.73493 0.220703 5.94539 1.37608 3.89219 3.43064C1.83689 5.48604 0.681985 8.27352 0.681396 11.1802C0.681396 14.0857 1.83728 16.8752 3.89219 18.9298C5.94539 20.9844 8.73493 22.1397 11.6409 22.1397C14.5469 22.1397 17.3364 20.9844 19.3896 18.9298C21.4446 16.8752 22.6004 14.0857 22.6004 11.1802C22.6004 8.27475 21.4446 5.48521 19.3896 3.43064C17.3364 1.37608 14.5469 0.220703 11.6409 0.220703Z" fill="white"/>
<path d="M5.64227 11.0645C8.83765 9.67266 10.9679 8.75503 12.033 8.31162C15.0777 7.04563 15.7096 6.82575 16.1223 6.8183C16.2131 6.81685 16.4151 6.83928 16.547 6.94588C16.6566 7.03578 16.6874 7.15736 16.7028 7.24273C16.7165 7.32801 16.7354 7.52237 16.7199 7.67409C16.5556 9.40706 15.8415 13.6124 15.4784 15.5535C15.326 16.3747 15.0229 16.6501 14.7301 16.677C14.0931 16.7356 13.6102 16.2564 12.9937 15.8525C12.0296 15.2201 11.4851 14.8265 10.5484 14.2096C9.46611 13.4965 10.1682 13.1045 10.7847 12.4641C10.9456 12.2964 13.7506 9.74578 13.8037 9.51443C13.8105 9.48549 13.8174 9.37761 13.7523 9.32075C13.689 9.26373 13.5948 9.28325 13.5263 9.29866C13.4287 9.32058 11.8892 10.3391 8.90272 12.3541C8.46605 12.6545 8.07048 12.8009 7.7143 12.7932C7.32387 12.7848 6.5704 12.572 6.01044 12.3901C5.32547 12.167 4.7792 12.049 4.82715 11.67C4.85113 11.4728 5.1234 11.2709 5.64227 11.0645Z" fill="#2AABEE"/>
</g>
<defs>
<clipPath id="clip0_1_606">
<rect width="21.919" height="21.919" fill="white" transform="translate(0.681396 0.220703)"/>
</clipPath>
</defs>
</svg>
