<svg width="23" height="23" fill="none" xmlns="http://www.w3.org/2000/svg"><g clip-path="url(#clip0_1_606)"><path d="M11.64.22a10.958 10.958 0 00-7.748 18.71A10.958 10.958 0 1019.39 3.43 10.958 10.958 0 0011.64.22z" fill="#fff"/><path d="M5.642 11.065a534.758 534.758 0 016.391-2.753c3.045-1.266 3.677-1.486 4.09-1.494.09-.001.292.021.424.128.11.09.14.211.156.297.014.085.032.28.017.431-.164 1.733-.878 5.938-1.242 7.88-.152.82-.455 1.096-.748 1.123-.637.059-1.12-.42-1.736-.825-.964-.632-1.509-1.026-2.446-1.642-1.082-.714-.38-1.106.237-1.746.16-.168 2.966-2.718 3.019-2.95.006-.029.013-.136-.052-.193-.063-.057-.157-.038-.226-.022-.097.022-1.637 1.04-4.623 3.055-.437.3-.833.447-1.189.44-.39-.01-1.144-.222-1.704-.404-.685-.223-1.23-.341-1.183-.72.024-.197.296-.4.815-.605z" fill="#2AABEE"/></g><defs><clipPath id="clip0_1_606"><path fill="#fff" transform="translate(.681 .22)" d="M0 0h21.919v21.919H0z"/></clipPath></defs></svg>