<svg width="161" height="48" viewBox="0 0 161 48" fill="none" xmlns="http://www.w3.org/2000/svg">
<path d="M12.778 5.19998H25.978C27.178 5.19998 30.778 4.79998 32.378 10.4C33.578 14 35.178 19.6 37.578 28H38.378C40.778 19.2 42.778 13.2 43.578 10.4C45.178 4.79998 49.178 5.19998 50.778 5.19998H63.178V43.6H50.378V20.8H49.578L42.778 43.6H33.178L26.378 20.8H25.178V43.6H12.778M68.378 5.19998H81.178V28H82.378L90.778 9.19998C92.378 5.59998 95.978 5.19998 95.978 5.19998H107.978V43.6H95.178V20.8H94.378L85.978 39.6C84.378 43.2 80.378 43.6 80.378 43.6H68.378M125.178 32V43.6H113.178V23.6H152.378C150.778 28.4 145.178 32 138.778 32" fill="#0F754E"/>
<path d="M153.178 21.2C154.778 14 149.978 5.19995 139.578 5.19995H112.378C113.178 13.6 120.378 21.2 127.978 21.2" fill="url(#paint0_linear_18_128)"/>
<defs>
<linearGradient id="paint0_linear_18_128" x1="148.378" y1="-4.86374e-05" x2="116.378" y2="-4.86374e-05" gradientUnits="userSpaceOnUse">
<stop stop-color="#1F5CD7"/>
<stop offset="1" stop-color="#02AEFF"/>
</linearGradient>
</defs>
</svg>
