<svg width="96" height="48" fill="none" xmlns="http://www.w3.org/2000/svg"><g clip-path="url(#clip0_18_19)"><path d="M83.044 13.701v11.736h-4.19v-8.232h-4.035v8.232h-4.19V13.7h12.415z" fill="#fff"/><path fill-rule="evenodd" clip-rule="evenodd" d="M62.022 25.856c3.751 0 6.537-2.3 6.537-5.787 0-3.374-2.055-5.565-5.49-5.565-1.585 0-2.893.558-3.878 1.52.235-1.99 1.918-3.443 3.77-3.443l3.647-.006 1.82-3.484s-4.041.092-5.92.092c-4.293.075-7.192 3.977-7.192 8.716 0 5.521 2.828 7.957 6.706 7.957zm.023-8.267c1.393 0 2.358.915 2.358 2.48 0 1.409-.858 2.569-2.358 2.572-1.435 0-2.4-1.075-2.4-2.548 0-1.565.965-2.504 2.4-2.504z" fill="#fff"/><path d="M51.905 21.508s-.99.57-2.468.678c-1.699.05-3.213-1.023-3.213-2.93 0-1.86 1.336-2.925 3.17-2.925 1.125 0 2.613.78 2.613.78s1.09-1.999 1.653-2.998c-1.033-.783-2.408-1.212-4.008-1.212-4.038 0-7.166 2.633-7.166 6.332 0 3.747 2.94 6.318 7.166 6.24 1.181-.043 2.81-.458 3.804-1.096l-1.551-2.87z" fill="#fff"/><path d="M.378 10.448l5.813 10.39v6.338L.385 37.546.378 10.447z" fill="#5B57A2"/><path d="M22.697 17.057l5.447-3.338 11.147-.01-16.594 10.165v-6.817z" fill="#D90751"/><path d="M22.666 10.387l.03 13.756-5.826-3.58V0l5.796 10.387z" fill="#FAB718"/><path d="M39.29 13.708l-11.147.01-5.477-3.331L16.87 0l22.42 13.708z" fill="#ED6F26"/><path d="M22.697 37.603v-6.674l-5.827-3.512L16.873 48l5.824-10.397z" fill="#63B22F"/><path d="M28.13 34.295L6.19 20.838.378 10.448l38.89 23.833-11.138.014z" fill="#1487C9"/><path d="M16.874 48l5.822-10.397 5.433-3.308 11.138-.014L16.874 48z" fill="#017F36"/><path d="M.385 37.545l16.533-10.128-5.558-3.41-5.17 3.169-5.805 10.37z" fill="#984995"/><path d="M46.225 33.335a1.205 1.205 0 01-.498.37 1.72 1.72 0 01-.653.126 1.852 1.852 0 01-.653-.11 1.415 1.415 0 01-.834-.802 1.668 1.668 0 01-.118-.636c0-.216.037-.416.114-.606.074-.19.181-.352.316-.49a1.518 1.518 0 011.087-.452c.24 0 .462.03.664.09s.373.16.515.3l-.246.416a1.155 1.155 0 00-.41-.24 1.448 1.448 0 00-.449-.07 1.038 1.038 0 00-.717.29 1.056 1.056 0 00-.31.765 1.051 1.051 0 00.32.77.95.95 0 00.344.21c.132.05.27.072.418.072.181 0 .346-.037.488-.107.14-.067.265-.16.37-.276l.252.38zm.694.426v-2.962h.532v2.206l1.73-2.206h.532v2.962h-.532v-2.207l-1.73 2.207h-.532zm6.318-.426a1.217 1.217 0 01-.498.37c-.208.084-.43.127-.654.126a1.85 1.85 0 01-.653-.11 1.413 1.413 0 01-.835-.802 1.668 1.668 0 01-.117-.636c0-.216.037-.416.114-.606.075-.19.182-.352.317-.49.134-.139.296-.245.477-.328.192-.085.4-.127.61-.124.239 0 .461.03.663.09s.374.16.515.3l-.246.416a1.15 1.15 0 00-.41-.24 1.45 1.45 0 00-.448-.07 1.043 1.043 0 00-.717.29 1.056 1.056 0 00-.31.765 1.051 1.051 0 00.32.77.951.951 0 00.343.21c.132.046.27.072.418.072.182 0 .343-.037.488-.107.14-.067.265-.16.37-.276l.253.38zm.272-2.536h2.73v.526h-1.097v2.436h-.532v-2.436h-1.097v-.526h-.004z" fill="#fff"/><path fill-rule="evenodd" clip-rule="evenodd" d="M58.723 33.731c.202-.063.374-.16.522-.293l-.162-.413a1.23 1.23 0 01-.386.22c-.159.06-.337.09-.533.09-.292 0-.535-.076-.727-.233-.191-.156-.296-.376-.32-.656h2.303a1.6 1.6 0 00.034-.356 1.34 1.34 0 00-.407-.982 1.32 1.32 0 00-.445-.276 1.477 1.477 0 00-.542-.1c-.249 0-.468.044-.66.123a1.391 1.391 0 00-.78.819c-.071.194-.107.4-.105.606 0 .233.04.446.115.636a1.4 1.4 0 00.323.49 1.4 1.4 0 00.505.312 2.013 2.013 0 001.266.013zm-1.346-2.28c.165-.15.383-.223.66-.223.259 0 .468.07.62.21.15.14.231.333.245.58h-1.818a.905.905 0 01.293-.567z" fill="#fff"/><path d="M60.177 30.799h.485l1.151 1.468 1.09-1.468h.472v2.962h-.532v-2.16l-1.036 1.374h-.02l-1.078-1.374v2.16h-.532v-2.962z" fill="#fff"/><path fill-rule="evenodd" clip-rule="evenodd" d="M64.822 30.809a1.68 1.68 0 00-.457.196l.14.42c.122-.06.243-.11.364-.154a1.39 1.39 0 01.462-.063c.147 0 .266.024.356.07a.47.47 0 01.206.19c.047.08.077.18.094.296.017.116.023.243.023.38a.913.913 0 00-.363-.15 2.093 2.093 0 00-.384-.04 1.65 1.65 0 00-.448.063.986.986 0 00-.36.18c-.1.08-.18.18-.235.296a.922.922 0 00-.088.402c0 .29.084.516.252.676.169.16.39.24.667.24.25 0 .448-.044.6-.13a1.22 1.22 0 00.36-.3v.383h.498v-1.817c0-.386-.085-.685-.256-.895-.168-.21-.468-.317-.892-.317-.189 0-.367.027-.539.074zm.89 2.4c-.122.086-.28.126-.475.126-.172 0-.307-.044-.4-.127a.439.439 0 01-.142-.34c0-.082.016-.152.054-.215a.492.492 0 01.144-.154.642.642 0 01.206-.09.933.933 0 01.235-.03c.263 0 .488.064.673.197v.376a1.527 1.527 0 01-.296.257zm5.492-3.452a.818.818 0 00.303-.256l-.29-.416a.583.583 0 01-.252.206c-.1.04-.203.068-.31.087l-.1.017-.283.05c-.162.03-.32.078-.471.146-.24.103-.43.242-.576.419a1.99 1.99 0 00-.337.596 3.12 3.12 0 00-.157.689c-.028.24-.04.469-.04.688 0 .284.036.54.11.77.074.23.178.422.316.578.138.16.303.28.499.367.195.086.414.13.66.13.225 0 .434-.044.622-.124a1.48 1.48 0 00.801-.812c.078-.183.115-.38.115-.586 0-.222-.034-.425-.098-.605a1.229 1.229 0 00-.717-.762 1.532 1.532 0 00-.953-.057 1.444 1.444 0 00-.616.36.979.979 0 00-.195.282h-.013a3.16 3.16 0 01.057-.419c.03-.143.074-.28.132-.41.057-.13.13-.246.221-.352a1.01 1.01 0 01.35-.25c.147-.07.302-.12.462-.15l.105-.019c.105-.019.206-.037.302-.057a1.62 1.62 0 00.353-.11zm-1.871 2.846a1.66 1.66 0 01-.074-.52.839.839 0 01.121-.282.992.992 0 01.219-.24 1.11 1.11 0 01.693-.236c.313 0 .549.096.714.286.165.193.246.433.246.722 0 .143-.027.273-.074.393a.943.943 0 01-.512.53.98.98 0 01-.4.08.922.922 0 01-.728-.34 1.252 1.252 0 01-.205-.393zm6.56-1.804h-.532v2.962h.532V30.8zm-3.312 0h.532v.889h.492c.231 0 .42.03.572.086a.979.979 0 01.363.226c.09.093.155.203.192.326.037.123.057.25.057.383s-.02.26-.064.386a.875.875 0 01-.205.337.988.988 0 01-.384.24c-.161.06-.357.092-.592.092h-.966V30.8h.003zm.532 1.384v1.085h.387c.266 0 .454-.046.562-.14.108-.093.162-.226.162-.402a.518.518 0 00-.165-.41c-.111-.093-.296-.14-.552-.14h-.394v.007z" fill="#fff"/><path d="M79.411 33.335a1.205 1.205 0 01-.498.37c-.208.084-.43.127-.653.126a1.852 1.852 0 01-.653-.11 1.42 1.42 0 01-.835-.802 1.676 1.676 0 01-.118-.636 1.575 1.575 0 01.431-1.095c.135-.14.296-.246.478-.33.192-.084.4-.126.61-.123.238 0 .46.03.662.09s.374.16.515.3l-.245.416a1.155 1.155 0 00-.411-.24 1.447 1.447 0 00-.448-.07 1.03 1.03 0 00-1.026 1.055 1.051 1.051 0 00.32.77.95.95 0 00.343.21c.131.046.27.072.417.072.182 0 .343-.037.488-.107.14-.067.266-.16.37-.276l.253.38zm.272-2.536h2.73v.526h-1.097v2.436h-.532v-2.436h-1.097v-.526h-.004z" fill="#fff"/><path fill-rule="evenodd" clip-rule="evenodd" d="M83.524 30.8h-.532v4.28h.532v-1.455c.108.07.236.12.384.153.148.033.303.05.461.05.236 0 .448-.044.64-.123a1.46 1.46 0 00.808-.842c.073-.197.11-.407.11-.63 0-.22-.033-.422-.097-.605a1.41 1.41 0 00-.276-.473 1.197 1.197 0 00-.435-.31 1.395 1.395 0 00-.575-.113c-.209 0-.404.04-.589.12a1.13 1.13 0 00-.43.296V30.8zm.37.548c.152-.08.317-.12.495-.12.155 0 .293.023.418.073.121.05.222.12.306.214a.89.89 0 01.189.326c.043.126.064.263.064.413 0 .16-.027.302-.074.436a.945.945 0 01-.532.562 1.075 1.075 0 01-.435.083c-.144 0-.279-.016-.407-.05a1.334 1.334 0 01-.393-.18v-1.467c.094-.113.218-.21.37-.29zm6.113-.55h-.532v2.963h.532V30.8zm-3.316 0h.532v.89h.492c.232 0 .42.03.572.086a.979.979 0 01.364.226c.09.093.154.203.191.326.037.123.057.25.057.383s-.02.26-.063.386a.875.875 0 01-.206.337.988.988 0 01-.383.24c-.162.06-.357.092-.593.092h-.966V30.8h.003zm.536 1.385v1.085h.387c.266 0 .455-.046.562-.14.108-.093.162-.226.162-.402 0-.18-.057-.316-.165-.41-.111-.093-.296-.14-.552-.14h-.394v.007z" fill="#fff"/><path d="M92.559 32.227l1.137 1.534h-.653l-.878-1.198-.892 1.198h-.62l1.131-1.508-1.063-1.454h.653l.811 1.118.824-1.118h.62l-1.07 1.428zm-46.727 5.195h-1.633v2.47h-.532V36.93h2.696v2.962h-.531v-2.47zm3.55.034h-1.05l-.033.499a6.011 6.011 0 01-.158 1.021c-.071.26-.159.46-.26.6a.744.744 0 01-.353.283c-.14.05-.286.075-.434.073l-.04-.513a.432.432 0 00.198-.043.554.554 0 00.219-.216c.07-.114.134-.273.192-.48a4.17 4.17 0 00.114-.825l.054-.922h2.084v2.962h-.532v-2.44z" fill="#fff"/><path fill-rule="evenodd" clip-rule="evenodd" d="M51.349 36.937a1.666 1.666 0 00-.458.196l.141.42c.121-.06.243-.11.363-.154.122-.043.277-.063.462-.063a.77.77 0 01.356.07c.092.043.159.11.206.19.047.08.077.18.094.296.017.116.024.243.024.38a.912.912 0 00-.364-.15 2.095 2.095 0 00-.384-.04 1.63 1.63 0 00-.447.063.985.985 0 00-.36.18c-.1.08-.18.18-.236.296a.92.92 0 00-.087.402c0 .29.084.516.252.676.168.16.39.24.666.24.25 0 .448-.044.6-.13.15-.087.272-.187.36-.3v.383h.498v-1.817c0-.386-.084-.686-.256-.896-.168-.21-.468-.316-.892-.316-.182 0-.363.026-.538.074zm.892 2.399c-.121.087-.28.127-.475.127-.175 0-.306-.044-.4-.127a.438.438 0 01-.142-.34c0-.083.017-.153.054-.216a.487.487 0 01.145-.153.635.635 0 01.205-.09.936.936 0 01.236-.03c.262 0 .488.064.673.197v.376a1.533 1.533 0 01-.296.256z" fill="#fff"/><path d="M53.556 36.93h2.73v.526H55.19v2.436h-.532v-2.436H53.56v-.526h-.004z" fill="#fff"/><path fill-rule="evenodd" clip-rule="evenodd" d="M58.77 39.862c.203-.063.374-.16.522-.293l-.161-.413c-.098.087-.23.16-.388.22s-.336.09-.531.09c-.293 0-.535-.077-.727-.233-.192-.156-.296-.376-.32-.656h2.302c.024-.103.034-.22.034-.356a1.341 1.341 0 00-.408-.981 1.311 1.311 0 00-.444-.277 1.48 1.48 0 00-.542-.1 1.7 1.7 0 00-.66.123 1.45 1.45 0 00-.48.33c-.133.14-.235.307-.3.49a1.705 1.705 0 00-.105.605c0 .233.04.446.115.636a1.388 1.388 0 00.828.802c.213.075.437.113.663.11.199 0 .4-.034.603-.097zm-1.349-2.283c.165-.15.384-.223.66-.223.262 0 .468.073.62.21.15.14.231.332.245.579h-1.818a.904.904 0 01.293-.566zm2.34-.65h.672l1.027 1.429-1.097 1.534h-.653l1.15-1.535-1.1-1.427zm1.83 0h.532v2.963h-.532V36.93zm2.434 2.963l-1.172-1.535 1.094-1.428h-.66l-1.033 1.428 1.111 1.535h.66zm2.43-.03c.202-.063.374-.16.522-.293l-.162-.413c-.098.087-.229.16-.387.22s-.337.09-.532.09c-.293 0-.535-.077-.727-.233-.192-.156-.296-.376-.32-.656h2.303a1.64 1.64 0 00.033-.356 1.335 1.335 0 00-.407-.981 1.314 1.314 0 00-.444-.277 1.48 1.48 0 00-.542-.1 1.7 1.7 0 00-.66.123 1.387 1.387 0 00-.78.819c-.072.194-.107.4-.105.606 0 .233.04.446.114.636a1.386 1.386 0 00.828.802 2.013 2.013 0 001.266.013zm-1.35-2.283c.166-.15.384-.223.66-.223.26 0 .468.073.62.21.151.14.232.332.245.579h-1.817a.904.904 0 01.292-.566zm4.238-1.644c-.313 0-.484-.174-.511-.52h-.502c0 .133.024.253.067.367.044.113.108.21.192.29.084.08.192.142.317.192.124.05.269.073.434.073.151 0 .286-.023.407-.073a.966.966 0 00.31-.193.84.84 0 00.198-.29.934.934 0 00.071-.365h-.498c-.023.346-.189.519-.485.519zm-1.437.994v2.963h.532l1.73-2.207v2.207h.532v-2.963h-.532l-1.73 2.207V36.93h-.532z" fill="#fff"/></g><defs><clipPath id="clip0_18_19"><path fill="#fff" transform="translate(.378)" d="M0 0h95.6v48H0z"/></clipPath></defs></svg>