<svg width="96" height="48" viewBox="0 0 96 48" fill="none" xmlns="http://www.w3.org/2000/svg">
<g clip-path="url(#clip0_18_19)">
<path d="M83.0438 13.7015V25.4367H78.8534V17.2047H74.8186V25.4367H70.6282V13.7007H83.0438V13.7015Z" fill="white"/>
<path fill-rule="evenodd" clip-rule="evenodd" d="M62.0222 25.8563C65.7734 25.8563 68.559 23.5563 68.559 20.0695C68.559 16.6947 66.5038 14.5035 63.069 14.5035C61.4838 14.5035 60.1758 15.0615 59.1906 16.0243C59.4258 14.0343 61.1086 12.5815 62.9614 12.5815C63.389 12.5815 66.6082 12.5747 66.6082 12.5747L68.4286 9.09106C68.4286 9.09106 64.387 9.18306 62.5082 9.18306C58.2154 9.25786 55.3158 13.1599 55.3158 17.8991C55.3158 23.4203 58.1438 25.8563 62.0222 25.8563ZM62.045 17.5891C63.4378 17.5891 64.4034 18.5043 64.4034 20.0691C64.4034 21.4775 63.5454 22.6379 62.045 22.6411C60.6098 22.6411 59.6442 21.5659 59.6442 20.0931C59.6442 18.5279 60.6098 17.5891 62.045 17.5891Z" fill="white"/>
<path d="M51.905 21.5079C51.905 21.5079 50.9154 22.0783 49.4374 22.1863C47.7382 22.2367 46.2242 21.1635 46.2242 19.2567C46.2242 17.3967 47.5602 16.3307 49.3946 16.3307C50.5194 16.3307 52.0074 17.1103 52.0074 17.1103C52.0074 17.1103 53.0962 15.1123 53.6602 14.1131C52.6274 13.3303 51.2518 12.9011 49.6518 12.9011C45.6138 12.9011 42.4862 15.5339 42.4862 19.2331C42.4862 22.9795 45.4258 25.5511 49.6518 25.4735C50.833 25.4295 52.4626 25.0147 53.4558 24.3767L51.905 21.5079Z" fill="white"/>
<path d="M0.37793 10.448L6.19073 20.838V27.1756L0.38473 37.5452L0.37793 10.448Z" fill="#5B57A2"/>
<path d="M22.6967 17.0572L28.1435 13.7188L39.2907 13.7084L22.6967 23.874V17.0572Z" fill="#D90751"/>
<path d="M22.6659 10.3868L22.6967 24.1428L16.8703 20.5628V0L22.6659 10.3868Z" fill="#FAB718"/>
<path d="M39.2907 13.7084L28.1431 13.7188L22.6659 10.3868L16.8703 0L39.2907 13.7084Z" fill="#ED6F26"/>
<path d="M22.6967 37.6027V30.9287L16.8703 27.4167L16.8735 47.9999L22.6967 37.6027Z" fill="#63B22F"/>
<path d="M28.1299 34.2948L6.19033 20.838L0.37793 10.448L39.2671 34.2812L28.1299 34.2948Z" fill="#1487C9"/>
<path d="M16.8739 48L22.6963 37.6029L28.1295 34.2948L39.2667 34.2812L16.8739 48Z" fill="#017F36"/>
<path d="M0.384705 37.5452L16.9179 27.4172L11.3595 24.0068L6.1907 27.1756L0.384705 37.5452Z" fill="#984995"/>
<path d="M46.2254 33.3347C46.0974 33.4979 45.929 33.6211 45.727 33.7043C45.5197 33.7887 45.2979 33.8316 45.0742 33.8307C44.8516 33.8337 44.6303 33.7966 44.421 33.7211C44.2329 33.6528 44.061 33.5463 43.9161 33.4083C43.7731 33.2701 43.6608 33.1033 43.5866 32.9187C43.5062 32.7166 43.4661 32.5007 43.4686 32.2831C43.4686 32.0671 43.5057 31.8671 43.5829 31.6775C43.6569 31.4875 43.7645 31.3247 43.8993 31.1879C44.0342 31.0483 44.1957 30.9419 44.3773 30.8587C44.5625 30.7787 44.7646 30.7355 44.9866 30.7355C45.2258 30.7355 45.4477 30.7655 45.6497 30.8251C45.8517 30.8851 46.0234 30.9851 46.1646 31.1251L45.919 31.5411C45.8002 31.4335 45.6603 31.3517 45.5082 31.3011C45.3635 31.2545 45.2125 31.2311 45.0605 31.2315C44.9261 31.2315 44.7981 31.2579 44.6737 31.3079C44.5512 31.3573 44.4392 31.4297 44.3438 31.5211C44.2463 31.6152 44.1694 31.7285 44.1181 31.8539C44.0609 31.9835 44.0341 32.1267 44.0341 32.2863C44.0341 32.4495 44.0642 32.5959 44.1214 32.7223C44.179 32.8523 44.2562 32.9623 44.3538 33.0551C44.4514 33.1487 44.5658 33.2183 44.697 33.2651C44.8286 33.3151 44.9666 33.3383 45.1146 33.3383C45.2962 33.3383 45.4614 33.3015 45.6026 33.2315C45.7425 33.164 45.8682 33.0703 45.9729 32.9555L46.2254 33.3347ZM46.9186 33.7607V30.7987H47.4505V33.0055L49.1806 30.7987H49.7125V33.7611H49.1806V31.5543L47.4505 33.7611L46.9186 33.7607ZM53.2366 33.3347C53.1057 33.4993 52.934 33.6267 52.7386 33.7043C52.5311 33.7887 52.3092 33.8316 52.0853 33.8307C51.8629 33.8337 51.6418 33.7966 51.4325 33.7211C51.2444 33.6528 51.0724 33.5463 50.9274 33.4083C50.7843 33.2701 50.672 33.1033 50.5978 32.9187C50.5174 32.7166 50.4773 32.5007 50.4798 32.2831C50.4798 32.0671 50.5169 31.8671 50.5942 31.6775C50.6686 31.4875 50.7762 31.3247 50.9106 31.1879C51.0454 31.0483 51.2069 30.9419 51.3885 30.8587C51.5804 30.7743 51.7882 30.7322 51.9978 30.7355C52.237 30.7355 52.459 30.7655 52.661 30.8251C52.863 30.8851 53.0346 30.9851 53.1762 31.1251L52.9301 31.5411C52.8116 31.4334 52.6718 31.3517 52.5197 31.3011C52.3751 31.2546 52.2241 31.2311 52.0722 31.2315C51.8048 31.2324 51.548 31.3361 51.3549 31.5211C51.2583 31.6159 51.1816 31.7291 51.1293 31.8539C51.0721 31.9835 51.0453 32.1267 51.0453 32.2863C51.0453 32.4495 51.0757 32.5959 51.1329 32.7223C51.1901 32.8523 51.2674 32.9623 51.365 33.0551C51.4626 33.1487 51.5773 33.2183 51.7085 33.2651C51.8397 33.3115 51.9777 33.3383 52.1257 33.3383C52.3077 33.3383 52.4693 33.3015 52.6137 33.2315C52.7537 33.164 52.8794 33.0703 52.9842 32.9555L53.2366 33.3347ZM53.5093 30.7987H56.2389V31.3247H55.1418V33.7607H54.6098V31.3247H53.5126V30.7987H53.5093Z" fill="white"/>
<path fill-rule="evenodd" clip-rule="evenodd" d="M58.7233 33.7311C58.9253 33.6679 59.0969 33.5711 59.2449 33.4383L59.0834 33.0255C58.9858 33.1123 58.8545 33.1855 58.6965 33.2455C58.5381 33.3055 58.3597 33.3351 58.1645 33.3351C57.8717 33.3351 57.6293 33.2587 57.4373 33.1023C57.2457 32.9455 57.1414 32.7263 57.1178 32.4463H59.4201C59.4437 32.3431 59.4537 32.2267 59.4537 32.0903C59.4537 31.8871 59.4165 31.7043 59.3425 31.5379C59.2737 31.3763 59.173 31.2302 59.0465 31.1083C58.9183 30.9876 58.7672 30.8937 58.6021 30.8323C58.4294 30.7653 58.2455 30.7313 58.0602 30.7323C57.811 30.7323 57.5922 30.7755 57.4006 30.8555C57.2194 30.9317 57.0556 31.0439 56.9189 31.1851C56.7863 31.3256 56.6844 31.4922 56.6197 31.6743C56.5486 31.8682 56.5133 32.0734 56.5153 32.2799C56.5153 32.5131 56.5557 32.7259 56.6297 32.9159C56.7017 33.1 56.8119 33.2667 56.9529 33.4051C57.0909 33.5411 57.2589 33.6447 57.4577 33.7179C57.6706 33.7934 57.8951 33.8305 58.1209 33.8275C58.3255 33.8263 58.5286 33.7935 58.7233 33.7311ZM57.3769 31.4511C57.5417 31.3015 57.7605 31.2283 58.0365 31.2283C58.2957 31.2283 58.5045 31.2983 58.6561 31.4383C58.8077 31.5779 58.8881 31.7711 58.9017 32.0171H57.0842C57.1099 31.7993 57.214 31.5979 57.3769 31.4511Z" fill="white"/>
<path d="M60.1774 30.7987H60.6622L61.8134 32.2667L62.9038 30.7987H63.375V33.7611H62.8434V31.6011L61.8066 32.9755H61.7862L60.7094 31.6007V33.7607H60.1774V30.7987Z" fill="white"/>
<path fill-rule="evenodd" clip-rule="evenodd" d="M64.8221 30.8087C64.6607 30.8509 64.5065 30.917 64.3645 31.0047L64.5057 31.4247C64.6269 31.3647 64.7481 31.3147 64.8693 31.2715C64.9905 31.2279 65.1453 31.2079 65.3305 31.2079C65.4785 31.2079 65.5965 31.2315 65.6873 31.2779C65.7781 31.3211 65.8453 31.3879 65.8925 31.4679C65.9397 31.5479 65.9701 31.6475 65.9869 31.7639C66.0037 31.8803 66.0105 32.0067 66.0105 32.1435C65.9017 32.0677 65.7776 32.0165 65.6469 31.9935C65.5206 31.9684 65.3922 31.955 65.2633 31.9535C65.1049 31.9535 64.9569 31.9771 64.8153 32.0167C64.6741 32.0567 64.5529 32.1167 64.4553 32.1967C64.3557 32.2766 64.2752 32.3777 64.2197 32.4927C64.1605 32.6186 64.1305 32.7564 64.1321 32.8955C64.1321 33.1851 64.2165 33.4115 64.3845 33.5715C64.5529 33.7311 64.7749 33.8107 65.0509 33.8107C65.3001 33.8107 65.4989 33.7675 65.6501 33.6811C65.8017 33.5943 65.9229 33.4947 66.0105 33.3815V33.7643H66.5085V31.9471C66.5085 31.5607 66.4245 31.2615 66.2529 31.0515C66.0845 30.8419 65.7849 30.7355 65.3609 30.7355C65.1721 30.7355 64.9937 30.7619 64.8221 30.8087ZM65.7113 33.2087C65.5901 33.2951 65.4317 33.3347 65.2365 33.3347C65.0649 33.3347 64.9301 33.2915 64.8361 33.2083C64.7417 33.1219 64.6945 33.0087 64.6945 32.8687C64.6945 32.7859 64.7113 32.7159 64.7485 32.6527C64.7857 32.5895 64.8361 32.5395 64.8933 32.4995C64.9559 32.4577 65.0254 32.4272 65.0985 32.4095C65.1761 32.3895 65.2533 32.3795 65.3341 32.3795C65.5969 32.3795 65.8221 32.4427 66.0073 32.5759V32.9519C65.9201 33.0497 65.8206 33.1363 65.7113 33.2087ZM71.2045 29.7567C71.3121 29.7071 71.4129 29.6239 71.5073 29.5007L71.2177 29.0847C71.1437 29.1847 71.0597 29.2543 70.9653 29.2911C70.8653 29.3302 70.7616 29.3592 70.6557 29.3775L70.5549 29.3955C70.4673 29.4107 70.3733 29.4275 70.2721 29.4443C70.1098 29.4743 69.9517 29.5235 69.8009 29.5907C69.5617 29.6939 69.3701 29.8335 69.2253 30.0099C69.0805 30.1863 68.9661 30.3859 68.8885 30.6059C68.8099 30.8288 68.7569 31.0599 68.7305 31.2947C68.7033 31.5347 68.6901 31.7639 68.6901 31.9835C68.6901 32.2667 68.7269 32.5227 68.8009 32.7523C68.8753 32.9823 68.9793 33.1751 69.1173 33.3315C69.2553 33.4915 69.4205 33.6115 69.6157 33.6979C69.8109 33.7843 70.0297 33.8275 70.2753 33.8275C70.5009 33.8275 70.7097 33.7843 70.8981 33.7043C71.0798 33.6274 71.2445 33.5156 71.3829 33.3751C71.5173 33.2383 71.6253 33.0751 71.6993 32.8923C71.7765 32.7091 71.8137 32.5127 71.8137 32.3063C71.8137 32.0835 71.7801 31.8807 71.7161 31.7007C71.6572 31.5291 71.5632 31.3716 71.4401 31.2383C71.3168 31.1072 71.1662 31.0048 70.9989 30.9383C70.8147 30.8658 70.6181 30.8296 70.4201 30.8319C70.2921 30.8319 70.1677 30.8487 70.0465 30.8819C69.9286 30.9151 69.8155 30.9633 69.7097 31.0251C69.6071 31.0839 69.5132 31.1566 69.4305 31.2411C69.3497 31.3247 69.2825 31.4179 69.2353 31.5243H69.2217C69.2321 31.3879 69.2489 31.2483 69.2789 31.1051C69.3093 30.9619 69.3529 30.8251 69.4105 30.6955C69.4677 30.5659 69.5417 30.4491 69.6325 30.3427C69.7299 30.2353 69.8493 30.1502 69.9825 30.0931C70.1291 30.0233 70.2841 29.973 70.4437 29.9435L70.5493 29.9243C70.6545 29.9051 70.7549 29.8867 70.8509 29.8667C70.9789 29.8403 71.0965 29.8063 71.2045 29.7567ZM69.3329 32.6027C69.2809 32.4347 69.2559 32.2594 69.2589 32.0835C69.2815 31.9826 69.3226 31.8867 69.3801 31.8007C69.4373 31.7107 69.5113 31.6311 69.5989 31.5607C69.7966 31.4058 70.041 31.3226 70.2921 31.3247C70.6053 31.3247 70.8409 31.4211 71.0057 31.6111C71.1709 31.8039 71.2517 32.0435 71.2517 32.3331C71.2517 32.4763 71.2245 32.6063 71.1777 32.7259C71.1323 32.8439 71.0635 32.9515 70.9757 33.0424C70.8878 33.1333 70.7825 33.2057 70.6661 33.2551C70.5449 33.3083 70.4133 33.3351 70.2653 33.3351C70.1173 33.3351 69.9825 33.3051 69.8581 33.2451C69.7345 33.1863 69.6253 33.1011 69.5381 32.9955C69.4469 32.8778 69.3774 32.7448 69.3329 32.6027ZM75.8933 30.7987H75.3613V33.7611H75.8933V30.7987ZM72.5809 30.7987H73.1129V31.6875H73.6045C73.8365 31.6875 74.0249 31.7175 74.1765 31.7739C74.3281 31.8307 74.4493 31.9071 74.5401 32.0003C74.6309 32.0935 74.6949 32.2035 74.7321 32.3263C74.7689 32.4495 74.7893 32.5759 74.7893 32.7091C74.7893 32.8423 74.7689 32.9691 74.7253 33.0955C74.6849 33.2219 74.6141 33.3315 74.5197 33.4315C74.4257 33.5315 74.2977 33.6115 74.1361 33.6715C73.9745 33.7311 73.7793 33.7643 73.5437 33.7643H72.5777V30.7987H72.5809ZM73.1129 32.1831V33.2683H73.5001C73.7661 33.2683 73.9545 33.2219 74.0621 33.1283C74.1701 33.0351 74.2237 32.9023 74.2237 32.7259C74.2237 32.5459 74.1665 32.4099 74.0589 32.3163C73.9477 32.2231 73.7625 32.1763 73.5069 32.1763H73.1129V32.1831Z" fill="white"/>
<path d="M79.411 33.3347C79.283 33.4979 79.1146 33.6211 78.9126 33.7043C78.7053 33.7887 78.4835 33.8316 78.2598 33.8307C78.0372 33.8337 77.8159 33.7966 77.6066 33.7211C77.4185 33.6529 77.2466 33.5464 77.1018 33.4083C76.9587 33.27 76.8463 33.1032 76.7718 32.9187C76.6917 32.7165 76.6518 32.5006 76.6542 32.2831C76.6542 32.0671 76.691 31.8671 76.7686 31.6775C76.8426 31.4875 76.9502 31.3247 77.085 31.1879C77.2198 31.0483 77.381 30.9419 77.563 30.8587C77.7548 30.7742 77.9626 30.7322 78.1722 30.7355C78.411 30.7355 78.6334 30.7655 78.8354 30.8251C79.0374 30.8851 79.209 30.9851 79.3502 31.1251L79.1046 31.5411C78.9858 31.4335 78.8459 31.3517 78.6938 31.3011C78.5491 31.2545 78.3981 31.2311 78.2462 31.2315C78.1118 31.2315 77.9838 31.2579 77.859 31.3079C77.7365 31.3573 77.6246 31.4297 77.5294 31.5211C77.4326 31.6158 77.3558 31.729 77.3038 31.8539C77.2466 31.9835 77.2198 32.1267 77.2198 32.2863C77.2198 32.4495 77.2498 32.5959 77.307 32.7223C77.3642 32.8523 77.4418 32.9623 77.5394 33.0551C77.637 33.1487 77.7514 33.2183 77.8826 33.2651C78.0142 33.3115 78.1522 33.3383 78.3002 33.3383C78.4818 33.3383 78.6434 33.3015 78.7882 33.2315C78.9281 33.164 79.0538 33.0703 79.1586 32.9555L79.411 33.3347ZM79.6834 30.7987H82.4134V31.3247H81.3158V33.7607H80.7842V31.3247H79.687V30.7987H79.6834Z" fill="white"/>
<path fill-rule="evenodd" clip-rule="evenodd" d="M83.5242 30.7991H82.9922V35.0791H83.5242V33.6247C83.6318 33.6947 83.7598 33.7447 83.9078 33.7779C84.0558 33.8111 84.2106 33.8275 84.369 33.8275C84.6046 33.8275 84.8166 33.7843 85.0086 33.7047C85.1927 33.6259 85.3596 33.5117 85.4998 33.3687C85.6378 33.2251 85.7422 33.0587 85.8162 32.8623C85.8902 32.6663 85.9274 32.4563 85.9274 32.2335C85.9274 32.0135 85.8938 31.8107 85.8298 31.6275C85.7695 31.4535 85.6758 31.293 85.5538 31.1551C85.4341 31.0205 85.2856 30.9147 85.1194 30.8455C84.9377 30.7674 84.7415 30.7288 84.5438 30.7323C84.3354 30.7323 84.1402 30.7723 83.955 30.8523C83.7698 30.9323 83.625 31.0283 83.5242 31.1483V30.7991ZM83.8946 31.3483C84.0462 31.2683 84.211 31.2283 84.3894 31.2283C84.5442 31.2283 84.6822 31.2515 84.807 31.3015C84.9282 31.3515 85.029 31.4215 85.1134 31.5147C85.1974 31.6079 85.2614 31.7147 85.3018 31.8407C85.3454 31.9671 85.3658 32.1039 85.3658 32.2535C85.3658 32.4135 85.3386 32.5563 85.2918 32.6895C85.2477 32.8158 85.1776 32.9314 85.0862 33.0291C84.9943 33.1255 84.8831 33.2015 84.7598 33.2519C84.6223 33.3094 84.4744 33.3378 84.3254 33.3351C84.181 33.3351 84.0462 33.3187 83.9182 33.2855C83.778 33.2473 83.6451 33.1865 83.5246 33.1055V31.6375C83.6186 31.5247 83.7434 31.4283 83.8946 31.3483ZM90.007 30.7987H89.475V33.7611H90.007V30.7987ZM86.6914 30.7987H87.2234V31.6875H87.7146C87.947 31.6875 88.1354 31.7175 88.287 31.7739C88.4386 31.8307 88.5598 31.9071 88.6506 32.0003C88.7414 32.0935 88.8054 32.2035 88.8422 32.3263C88.8794 32.4495 88.8994 32.5759 88.8994 32.7091C88.8994 32.8423 88.8794 32.9691 88.8358 33.0955C88.7954 33.2219 88.7246 33.3315 88.6302 33.4315C88.5362 33.5315 88.4082 33.6115 88.2466 33.6715C88.085 33.7311 87.8898 33.7643 87.6542 33.7643H86.6882V30.7987H86.6914ZM87.227 32.1831V33.2683H87.6142C87.8798 33.2683 88.0686 33.2219 88.1762 33.1283C88.2838 33.0351 88.3378 32.9023 88.3378 32.7259C88.3378 32.5459 88.2806 32.4099 88.173 32.3163C88.0618 32.2231 87.8766 32.1763 87.621 32.1763H87.227V32.1831Z" fill="white"/>
<path d="M92.5586 32.2267L93.6962 33.7611H93.0434L92.1646 32.5627L91.2726 33.7611H90.6534L91.7842 32.2531L90.7206 30.7987H91.3738L92.185 31.9171L93.0094 30.7987H93.629L92.5586 32.2267ZM45.8318 37.4223H44.1994V39.8919H43.6674V36.9299H46.3634V39.8919H45.8318V37.4223ZM49.3826 37.4555H48.3326L48.2986 37.9547C48.2618 38.3775 48.2114 38.7171 48.1406 38.9763C48.0698 39.2363 47.9822 39.4359 47.8814 39.5755C47.7806 39.7155 47.6626 39.8119 47.5278 39.8587C47.3887 39.9091 47.2417 39.9339 47.0938 39.9319L47.0534 39.4191C47.1106 39.4223 47.1778 39.4091 47.2518 39.3759C47.3262 39.3427 47.4002 39.2695 47.4706 39.1599C47.5414 39.0463 47.6054 38.8867 47.6626 38.6803C47.7198 38.4707 47.757 38.1979 47.777 37.8547L47.831 36.9327H49.9146V39.8951H49.3826V37.4555Z" fill="white"/>
<path fill-rule="evenodd" clip-rule="evenodd" d="M51.3486 36.9367C51.1766 36.9831 51.0218 37.0495 50.8906 37.1327L51.0322 37.5523C51.1534 37.4923 51.2746 37.4423 51.3954 37.3991C51.5166 37.3559 51.6718 37.3359 51.8566 37.3359C52.005 37.3359 52.1226 37.3591 52.2134 37.4055C52.3046 37.4491 52.3718 37.5155 52.419 37.5955C52.4658 37.6755 52.4962 37.7755 52.513 37.8915C52.5298 38.0083 52.5366 38.1347 52.5366 38.2711C52.4277 38.1954 52.3036 38.1443 52.173 38.1215C52.0466 38.0964 51.9182 38.083 51.7894 38.0815C51.6314 38.0815 51.483 38.1047 51.3418 38.1447C51.2002 38.1847 51.079 38.2447 50.9814 38.3247C50.8818 38.4046 50.8013 38.5057 50.7458 38.6207C50.6866 38.7467 50.6568 38.8844 50.6586 39.0235C50.6586 39.3127 50.7426 39.5395 50.911 39.6991C51.079 39.8587 51.3014 39.9387 51.5774 39.9387C51.8266 39.9387 52.025 39.8955 52.1766 39.8087C52.3278 39.7223 52.449 39.6223 52.5366 39.5091V39.8919H53.035V38.0747C53.035 37.6887 52.9506 37.3891 52.779 37.1795C52.6106 36.9695 52.311 36.8635 51.887 36.8635C51.7051 36.8637 51.524 36.8886 51.3486 36.9367ZM52.2406 39.3359C52.1198 39.4227 51.9614 39.4627 51.7662 39.4627C51.591 39.4627 51.4598 39.4195 51.3658 39.3359C51.2714 39.2495 51.2242 39.1363 51.2242 38.9967C51.2242 38.9135 51.241 38.8435 51.2782 38.7803C51.315 38.7171 51.3658 38.6671 51.423 38.6271C51.4802 38.5871 51.5506 38.5571 51.6282 38.5371C51.7051 38.5173 51.7843 38.5073 51.8638 38.5075C52.1262 38.5075 52.3518 38.5707 52.537 38.7035V39.0795C52.4496 39.1773 52.3499 39.2635 52.2406 39.3359Z" fill="white"/>
<path d="M53.5562 36.9299H56.2862V37.4555H55.1886V39.8919H54.657V37.4559H53.5598V36.9299H53.5562Z" fill="white"/>
<path fill-rule="evenodd" clip-rule="evenodd" d="M58.7706 39.8619C58.9726 39.7987 59.1442 39.7019 59.2922 39.5691L59.1306 39.1563C59.033 39.2431 58.9018 39.3163 58.7434 39.3763C58.5854 39.4363 58.407 39.4659 58.2118 39.4659C57.919 39.4659 57.6766 39.3895 57.4846 39.2331C57.2926 39.0767 57.1886 38.8571 57.165 38.5771H59.4674C59.4906 38.4743 59.501 38.3575 59.501 38.2211C59.501 38.0183 59.4638 37.8351 59.3898 37.6687C59.3209 37.5072 59.2201 37.3612 59.0934 37.2395C58.9655 37.1185 58.8145 37.0245 58.6494 36.9631C58.4766 36.8961 58.2927 36.8622 58.1074 36.8631C57.8582 36.8631 57.6394 36.9063 57.4478 36.9863C57.2666 37.0624 57.1027 37.1745 56.9662 37.3159C56.8336 37.4565 56.7316 37.6231 56.6666 37.8051C56.5957 37.9991 56.5603 38.2042 56.5622 38.4107C56.5622 38.6439 56.6026 38.8567 56.6766 39.0467C56.751 39.2363 56.8618 39.3995 56.9998 39.5359C57.1378 39.6723 57.3062 39.7755 57.505 39.8487C57.7177 39.9243 57.9421 39.9616 58.1678 39.9587C58.3666 39.9587 58.5686 39.9251 58.7706 39.8619ZM57.421 37.5787C57.5858 37.4291 57.8046 37.3559 58.0806 37.3559C58.3434 37.3559 58.5486 37.4291 58.7002 37.5655C58.8514 37.7055 58.9322 37.8983 58.9458 38.1447H57.1282C57.1539 37.9268 57.2579 37.7256 57.421 37.5787ZM59.7602 36.9299H60.4334L61.4598 38.3579L60.3626 39.8919H59.7098L60.8606 38.3575L59.7602 36.9299ZM61.591 36.9299H62.123V39.8919H61.591V36.9299ZM64.0246 39.8919L62.8534 38.3575L63.9474 36.9295H63.2874L62.2542 38.3575L63.365 39.8919H64.0246ZM66.455 39.8619C66.657 39.7987 66.8286 39.7019 66.9766 39.5691L66.815 39.1563C66.7174 39.2431 66.5862 39.3163 66.4282 39.3763C66.2698 39.4363 66.0914 39.4659 65.8962 39.4659C65.6034 39.4659 65.361 39.3895 65.169 39.2331C64.9774 39.0767 64.873 38.8571 64.8494 38.5771H67.1518C67.1754 38.4743 67.1854 38.3575 67.1854 38.2211C67.1854 38.0183 67.1486 37.8351 67.0742 37.6687C67.0053 37.5073 66.9046 37.3613 66.7782 37.2395C66.6501 37.1185 66.499 37.0245 66.3338 36.9631C66.161 36.8961 65.9771 36.8622 65.7918 36.8631C65.543 36.8631 65.3242 36.9063 65.1322 36.9863C64.9511 37.0625 64.7874 37.1746 64.651 37.3159C64.5181 37.4563 64.4161 37.623 64.3514 37.8051C64.2803 37.999 64.2449 38.2042 64.247 38.4107C64.247 38.6439 64.2874 38.8567 64.3614 39.0467C64.4354 39.2363 64.5466 39.3995 64.6846 39.5359C64.8226 39.6723 64.9906 39.7755 65.1894 39.8487C65.4022 39.9243 65.6268 39.9616 65.8526 39.9587C66.0572 39.9572 66.2603 39.9246 66.455 39.8619ZM65.1054 37.5787C65.2706 37.4291 65.4894 37.3559 65.7654 37.3559C66.0246 37.3559 66.233 37.4291 66.3846 37.5655C66.5362 37.7055 66.617 37.8983 66.6302 38.1447H64.8126C64.8383 37.9268 64.9423 37.7256 65.1054 37.5787ZM69.3434 35.9347C69.0302 35.9347 68.8586 35.7615 68.8318 35.4155H68.3302C68.3302 35.5483 68.3538 35.6683 68.3974 35.7815C68.4414 35.8947 68.5054 35.9911 68.5894 36.0711C68.6734 36.1511 68.7814 36.2143 68.9058 36.2639C69.0302 36.3139 69.175 36.3371 69.3398 36.3371C69.4914 36.3371 69.6262 36.3139 69.7474 36.2639C69.8686 36.2175 69.9694 36.1511 70.057 36.0711C70.141 35.9911 70.2086 35.8947 70.2554 35.7815C70.3026 35.6683 70.3262 35.5483 70.3262 35.4155H69.8282C69.8046 35.7615 69.6394 35.9347 69.3434 35.9347ZM67.9058 36.9295V39.8919H68.4378L70.1678 37.6851V39.8919H70.6998V36.9295H70.1678L68.4378 39.1363V36.9295H67.9058Z" fill="white"/>
</g>
<defs>
<clipPath id="clip0_18_19">
<rect width="95.6" height="48" fill="white" transform="translate(0.37793)"/>
</clipPath>
</defs>
</svg>
