<svg width="148" height="48" viewBox="0 0 148 48" fill="none" xmlns="http://www.w3.org/2000/svg">
<path d="M96.2485 0.0739746C85.7624 0.0739746 76.3909 5.50997 76.3909 15.5511C76.3909 27.0677 93.0109 27.8631 93.0109 33.6494C93.0109 36.0858 90.2197 38.2664 85.4504 38.2664C78.6839 38.2664 73.6264 35.2195 73.6264 35.2195L71.462 45.3538C71.462 45.3538 77.2883 47.9276 85.0232 47.9276C96.488 47.9276 105.511 42.2255 105.511 32.0114C105.511 19.8414 88.8211 19.0697 88.8211 13.7002C88.8211 11.7916 91.1126 9.70118 95.8671 9.70118C101.232 9.70118 105.608 11.9173 105.608 11.9173L107.727 2.1304C107.727 2.1304 102.963 0.0739746 96.247 0.0739746H96.2485ZM0.306161 0.813164L0.0518799 2.29006C0.0518799 2.29006 4.46336 3.09726 8.43724 4.70869C13.5539 6.55519 13.9176 7.63145 14.7795 10.9696L24.1687 47.1648H36.7556L56.146 0.813164H43.5887L31.1289 32.3278L26.0447 5.61346C25.579 2.55617 23.2166 0.811686 20.3264 0.811686H0.307639L0.306161 0.813164ZM61.1961 0.813164L51.3457 47.1648H63.3206L73.1355 0.813164H61.1961ZM127.983 0.813164C125.096 0.813164 123.566 2.35955 122.444 5.06055L104.9 47.1648H117.457L119.886 40.1469H135.185L136.661 47.1648H147.742L138.076 0.813164H127.983ZM129.617 13.3365L133.34 30.7296H123.368L129.618 13.3365H129.617Z" fill="#1434CB"/>
</svg>
