<svg width="62" height="48" fill="none" xmlns="http://www.w3.org/2000/svg"><g clip-path="url(#clip0_18_142)"><path d="M11.218 47.895v-3.186c0-1.218-.742-2.016-2.017-2.016-.637 0-1.33.21-1.806.903-.37-.582-.903-.903-1.7-.903-.533 0-1.065.16-1.485.742v-.637H3.096v5.097H4.21V45.08c0-.903.476-1.33 1.218-1.33.743 0 1.114.477 1.114 1.33v2.815h1.113V45.08c0-.903.532-1.33 1.219-1.33.742 0 1.113.477 1.113 1.33v2.815h1.23zm16.515-5.097h-1.806v-1.54h-1.113v1.54h-1.008v1.008h1.008v2.338c0 1.17.476 1.856 1.75 1.856.477 0 1.009-.16 1.38-.371l-.322-.959c-.322.21-.693.266-.959.266-.532 0-.742-.322-.742-.847v-2.283h1.806v-1.008h.006zm9.452-.111c-.637 0-1.064.321-1.33.742v-.637h-1.113v5.097h1.113v-2.87c0-.848.371-1.33 1.064-1.33.21 0 .476.055.693.105l.321-1.064c-.222-.043-.538-.043-.748-.043zm-14.283.532c-.532-.372-1.274-.532-2.072-.532-1.274 0-2.121.637-2.121 1.645 0 .847.637 1.33 1.75 1.484l.532.056c.582.105.903.266.903.532 0 .371-.427.637-1.169.637s-1.33-.266-1.7-.532l-.533.848c.582.426 1.38.637 2.177.637 1.485 0 2.339-.693 2.339-1.646 0-.903-.693-1.379-1.75-1.54l-.533-.055c-.476-.056-.847-.161-.847-.477 0-.37.37-.581.959-.581.637 0 1.274.266 1.595.427l.47-.904zm29.623-.532c-.637 0-1.064.321-1.33.742v-.637h-1.113v5.097h1.113v-2.87c0-.848.371-1.33 1.064-1.33.21 0 .477.055.693.105l.322-1.052c-.217-.055-.532-.055-.749-.055zm-14.227 2.66c0 1.54 1.064 2.653 2.71 2.653.742 0 1.274-.16 1.806-.581l-.532-.903c-.427.321-.848.476-1.33.476-.903 0-1.54-.637-1.54-1.646 0-.958.637-1.595 1.54-1.645.476 0 .903.16 1.33.476l.532-.903c-.532-.427-1.064-.581-1.806-.581-1.646-.006-2.71 1.113-2.71 2.653zm10.3 0v-2.55h-1.114v.638c-.371-.476-.903-.742-1.596-.742-1.435 0-2.548 1.113-2.548 2.653S44.453 48 45.888 48c.742 0 1.274-.266 1.596-.742v.637h1.113v-2.549zm-4.09 0c0-.904.582-1.646 1.54-1.646.904 0 1.541.693 1.541 1.645 0 .904-.637 1.646-1.54 1.646-.953-.056-1.54-.749-1.54-1.646zm-13.323-2.66c-1.485 0-2.548 1.064-2.548 2.653 0 1.596 1.063 2.654 2.604 2.654.742 0 1.484-.21 2.072-.693l-.532-.798c-.427.322-.959.532-1.485.532-.692 0-1.38-.322-1.54-1.218h3.767v-.427c.05-1.64-.91-2.703-2.338-2.703zm0 .958c.693 0 1.169.427 1.274 1.219h-2.653c.105-.687.581-1.219 1.379-1.219zm27.662 1.701v-4.565h-1.114v2.654c-.37-.476-.903-.742-1.595-.742-1.435 0-2.549 1.113-2.549 2.653S54.703 48 56.138 48c.742 0 1.274-.266 1.595-.742v.637h1.114v-2.549zm-4.089 0c0-.903.582-1.645 1.54-1.645.903 0 1.54.693 1.54 1.645 0 .904-.637 1.646-1.54 1.646-.958-.056-1.54-.749-1.54-1.646zm-37.274 0v-2.548H16.37v.637c-.37-.476-.903-.742-1.595-.742-1.435 0-2.549 1.113-2.549 2.653S13.34 48 14.775 48c.742 0 1.274-.266 1.595-.742v.637h1.114v-2.549zm-4.138 0c0-.903.581-1.645 1.54-1.645.903 0 1.54.693 1.54 1.645 0 .904-.637 1.646-1.54 1.646-.959-.056-1.54-.749-1.54-1.646z" fill="#fff"/><path d="M39.257 4.089H22.531v30.05h16.726V4.088z" fill="#FF5A00"/><path d="M23.645 19.113c0-6.105 2.87-11.523 7.274-15.024A19.011 19.011 0 0019.129 0C8.564 0 .016 8.548.016 19.113s8.548 19.114 19.113 19.114c4.46 0 8.549-1.54 11.79-4.089-4.41-3.451-7.274-8.92-7.274-15.025z" fill="#EB001B"/><path d="M61.822 19.113c0 10.565-8.548 19.114-19.113 19.114a19.01 19.01 0 01-11.79-4.089c4.46-3.507 7.274-8.92 7.274-15.025S35.323 7.59 30.92 4.09A18.98 18.98 0 0142.703 0c10.57 0 19.12 8.604 19.12 19.113z" fill="#F79E1B"/></g><defs><clipPath id="clip0_18_142"><path fill="#fff" transform="translate(.016)" d="M0 0h61.806v48H0z"/></clipPath></defs></svg>