<svg width="62" height="48" viewBox="0 0 62 48" fill="none" xmlns="http://www.w3.org/2000/svg">
<g clip-path="url(#clip0_18_142)">
<path d="M11.2179 47.8948V44.7093C11.2179 43.4907 10.4757 42.6928 9.20144 42.6928C8.56432 42.6928 7.87154 42.9031 7.39525 43.5959C7.02412 43.0144 6.49216 42.6928 5.69422 42.6928C5.16226 42.6928 4.6303 42.8536 4.20969 43.435V42.7979H3.09628V47.8948H4.20969V45.0804C4.20969 44.1773 4.68597 43.7505 5.42824 43.7505C6.17051 43.7505 6.54164 44.2268 6.54164 45.0804V47.8948H7.65505V45.0804C7.65505 44.1773 8.187 43.7505 8.8736 43.7505C9.61587 43.7505 9.987 44.2268 9.987 45.0804V47.8948H11.2179ZM27.7334 42.7979H25.9272V41.2577H24.8138V42.7979H23.8056V43.8062H24.8138V46.1443C24.8138 47.3134 25.2901 48 26.5643 48C27.0406 48 27.5726 47.8392 27.9437 47.6289L27.6221 46.6701C27.3004 46.8804 26.9293 46.9361 26.6633 46.9361C26.1313 46.9361 25.921 46.6144 25.921 46.0886V43.8062H27.7272V42.7979H27.7334ZM37.1849 42.6866C36.5478 42.6866 36.121 43.0082 35.855 43.4289V42.7917H34.7416V47.8887H35.855V45.0185C35.855 44.1711 36.2262 43.6886 36.919 43.6886C37.1293 43.6886 37.3953 43.7443 37.6117 43.7938L37.9334 42.7299C37.7107 42.6866 37.3953 42.6866 37.1849 42.6866ZM22.9025 43.2185C22.3705 42.8474 21.6282 42.6866 20.8303 42.6866C19.5561 42.6866 18.7087 43.3237 18.7087 44.332C18.7087 45.1794 19.3458 45.6618 20.4592 45.8165L20.9911 45.8722C21.5726 45.9773 21.8942 46.1381 21.8942 46.4041C21.8942 46.7752 21.4674 47.0412 20.7251 47.0412C19.9829 47.0412 19.3953 46.7752 19.0241 46.5093L18.4922 47.3567C19.0736 47.7835 19.8715 47.9938 20.6695 47.9938C22.154 47.9938 23.0076 47.301 23.0076 46.3484C23.0076 45.4454 22.3148 44.9691 21.2571 44.8082L20.7251 44.7526C20.2489 44.6969 19.8777 44.5917 19.8777 44.2763C19.8777 43.9051 20.2489 43.6948 20.8365 43.6948C21.4736 43.6948 22.1107 43.9608 22.4324 44.1216L22.9025 43.2185ZM52.5252 42.6866C51.888 42.6866 51.4612 43.0082 51.1953 43.4289V42.7917H50.0819V47.8887H51.1953V45.0185C51.1953 44.1711 51.5664 43.6886 52.2592 43.6886C52.4695 43.6886 52.7355 43.7443 52.952 43.7938L53.2736 42.7423C53.0571 42.6866 52.7416 42.6866 52.5252 42.6866ZM38.2983 45.3464C38.2983 46.8866 39.3623 48 41.0076 48C41.7499 48 42.2819 47.8392 42.8138 47.4185L42.2818 46.5155C41.855 46.8371 41.4344 46.9917 40.952 46.9917C40.0489 46.9917 39.4118 46.3546 39.4118 45.3464C39.4118 44.3876 40.0489 43.7505 40.952 43.701C41.4282 43.701 41.855 43.8618 42.2818 44.1773L42.8138 43.2742C42.2819 42.8474 41.7499 42.6928 41.0076 42.6928C39.3623 42.6866 38.2983 43.8062 38.2983 45.3464ZM48.5973 45.3464V42.7979H47.4839V43.435C47.1128 42.9588 46.5808 42.6928 45.888 42.6928C44.453 42.6928 43.3396 43.8062 43.3396 45.3464C43.3396 46.8866 44.453 48 45.888 48C46.6303 48 47.1623 47.734 47.4839 47.2577V47.8948H48.5973V45.3464ZM44.5087 45.3464C44.5087 44.4433 45.0901 43.701 46.0489 43.701C46.952 43.701 47.5891 44.3938 47.5891 45.3464C47.5891 46.2495 46.952 46.9917 46.0489 46.9917C45.0963 46.9361 44.5087 46.2433 44.5087 45.3464ZM31.1849 42.6866C29.7004 42.6866 28.6365 43.7505 28.6365 45.3402C28.6365 46.9361 29.7004 47.9938 31.2406 47.9938C31.9829 47.9938 32.7251 47.7835 33.3128 47.301L32.7808 46.5031C32.354 46.8247 31.8221 47.035 31.2963 47.035C30.6035 47.035 29.9169 46.7134 29.7561 45.8165H33.5231C33.5231 45.6557 33.5231 45.5505 33.5231 45.3897C33.5726 43.7505 32.6138 42.6866 31.1849 42.6866ZM31.1849 43.6453C31.8777 43.6453 32.354 44.0722 32.4592 44.8639H29.8056C29.9107 44.1773 30.387 43.6453 31.1849 43.6453ZM58.8468 45.3464V40.7814H57.7334V43.435C57.3623 42.9588 56.8303 42.6928 56.1375 42.6928C54.7025 42.6928 53.5891 43.8062 53.5891 45.3464C53.5891 46.8866 54.7025 48 56.1375 48C56.8798 48 57.4117 47.734 57.7334 47.2577V47.8948H58.8468V45.3464ZM54.7581 45.3464C54.7581 44.4433 55.3396 43.701 56.2983 43.701C57.2014 43.701 57.8386 44.3938 57.8386 45.3464C57.8386 46.2495 57.2014 46.9917 56.2983 46.9917C55.3396 46.9361 54.7581 46.2433 54.7581 45.3464ZM17.4839 45.3464V42.7979H16.3705V43.435C15.9994 42.9588 15.4674 42.6928 14.7746 42.6928C13.3396 42.6928 12.2262 43.8062 12.2262 45.3464C12.2262 46.8866 13.3396 48 14.7746 48C15.5169 48 16.0489 47.734 16.3705 47.2577V47.8948H17.4839V45.3464ZM13.3458 45.3464C13.3458 44.4433 13.9272 43.701 14.886 43.701C15.7891 43.701 16.4262 44.3938 16.4262 45.3464C16.4262 46.2495 15.7891 46.9917 14.886 46.9917C13.9272 46.9361 13.3458 46.2433 13.3458 45.3464Z" fill="white"/>
<path d="M39.2571 4.08865H22.5313V34.1381H39.2571V4.08865Z" fill="#FF5A00"/>
<path d="M23.6447 19.1134C23.6447 13.0082 26.5148 7.58969 30.919 4.08866C27.6777 1.54021 23.5891 0 19.1293 0C8.56432 0 0.0158691 8.54845 0.0158691 19.1134C0.0158691 29.6783 8.56432 38.2268 19.1293 38.2268C23.5891 38.2268 27.6777 36.6866 30.919 34.1381C26.5087 30.6866 23.6447 25.2186 23.6447 19.1134Z" fill="#EB001B"/>
<path d="M61.8221 19.1134C61.8221 29.6783 53.2736 38.2268 42.7087 38.2268C38.2489 38.2268 34.1602 36.6866 30.919 34.1381C35.3788 30.6309 38.1932 25.2186 38.1932 19.1134C38.1932 13.0082 35.3231 7.58969 30.919 4.08866C34.154 1.54021 38.2427 0 42.7025 0C53.2736 0 61.8221 8.60412 61.8221 19.1134Z" fill="#F79E1B"/>
</g>
<defs>
<clipPath id="clip0_18_142">
<rect width="61.8062" height="48" fill="white" transform="translate(0.0158691)"/>
</clipPath>
</defs>
</svg>
