<svg width="26" height="30" viewBox="0 0 26 30" fill="none" xmlns="http://www.w3.org/2000/svg">
<g opacity="0.5">
<path d="M13 0C15.1549 0 17.2215 0.790176 18.7452 2.1967C20.269 3.60322 21.125 5.51088 21.125 7.5V12C22.4179 12 23.6579 12.4741 24.5721 13.318C25.4864 14.1619 26 15.3065 26 16.5V25.5C26 26.6935 25.4864 27.8381 24.5721 28.682C23.6579 29.5259 22.4179 30 21.125 30H4.875C3.58207 30 2.34209 29.5259 1.42785 28.682C0.513615 27.8381 0 26.6935 0 25.5V16.5C0 15.3065 0.513615 14.1619 1.42785 13.318C2.34209 12.4741 3.58207 12 4.875 12V7.5C4.875 5.51088 5.73102 3.60322 7.25476 2.1967C8.77849 0.790176 10.8451 0 13 0ZM13 18C12.1801 17.9998 11.3903 18.2856 10.7891 18.8002C10.1879 19.3149 9.81962 20.0203 9.75813 20.775L9.75 21C9.75 21.5933 9.94061 22.1734 10.2977 22.6667C10.6548 23.1601 11.1624 23.5446 11.7563 23.7716C12.3501 23.9987 13.0036 24.0581 13.634 23.9424C14.2645 23.8266 14.8436 23.5409 15.2981 23.1213C15.7526 22.7018 16.0622 22.1672 16.1876 21.5853C16.313 21.0033 16.2486 20.4001 16.0026 19.852C15.7566 19.3038 15.3401 18.8352 14.8056 18.5056C14.2711 18.1759 13.6428 18 13 18ZM13 3C11.7071 3 10.4671 3.47411 9.55285 4.31802C8.63861 5.16193 8.125 6.30653 8.125 7.5V12H17.875V7.5C17.875 6.30653 17.3614 5.16193 16.4471 4.31802C15.5329 3.47411 14.2929 3 13 3Z" fill="black"/>
<path d="M13 18C12.1801 17.9998 11.3903 18.2856 10.7891 18.8002C10.1879 19.3149 9.81962 20.0203 9.75813 20.775L9.75 21C9.75 21.5933 9.94061 22.1734 10.2977 22.6667C10.6548 23.1601 11.1624 23.5446 11.7563 23.7716C12.3501 23.9987 13.0036 24.0581 13.634 23.9424C14.2645 23.8266 14.8436 23.5409 15.2981 23.1213C15.7526 22.7018 16.0622 22.1672 16.1876 21.5853C16.313 21.0033 16.2486 20.4001 16.0026 19.852C15.7566 19.3038 15.3401 18.8352 14.8056 18.5056C14.2711 18.1759 13.6428 18 13 18Z" fill="black"/>
</g>
</svg>
