<svg width="26" height="30" fill="none" xmlns="http://www.w3.org/2000/svg"><g opacity=".5" fill="#000"><path d="M13 0c2.155 0 4.221.79 5.745 2.197 1.524 1.406 2.38 3.314 2.38 5.303V12c1.293 0 2.533.474 3.447 1.318.914.844 1.428 1.989 1.428 3.182v9c0 1.194-.514 2.338-1.428 3.182-.914.844-2.154 1.318-3.447 1.318H4.875c-1.293 0-2.533-.474-3.447-1.318C.514 27.838 0 26.694 0 25.5v-9c0-1.194.514-2.338 1.428-3.182C2.342 12.474 3.582 12 4.875 12V7.5c0-1.99.856-3.897 2.38-5.303C8.778.79 10.845 0 13 0zm0 18c-.82 0-1.61.286-2.21.8a2.916 2.916 0 00-1.032 1.975L9.75 21c0 .593.19 1.173.548 1.667.357.493.864.878 1.458 1.105a3.502 3.502 0 001.878.17 3.342 3.342 0 001.664-.82c.455-.42.764-.955.89-1.537a2.786 2.786 0 00-.185-1.733 3.065 3.065 0 00-1.197-1.346A3.445 3.445 0 0013 18zm0-15c-1.293 0-2.533.474-3.447 1.318-.914.844-1.428 1.989-1.428 3.182V12h9.75V7.5c0-1.193-.514-2.338-1.428-3.182C15.533 3.474 14.293 3 13 3z"/><path d="M13 18c-.82 0-1.61.286-2.21.8a2.916 2.916 0 00-1.032 1.975L9.75 21c0 .593.19 1.173.548 1.667.357.493.864.878 1.458 1.105a3.502 3.502 0 001.878.17 3.342 3.342 0 001.664-.82c.455-.42.764-.955.89-1.537a2.786 2.786 0 00-.185-1.733 3.065 3.065 0 00-1.197-1.346A3.445 3.445 0 0013 18z"/></g></svg>