<svg width="48" height="48" fill="none" xmlns="http://www.w3.org/2000/svg"><path d="M24 42a7.51 7.51 0 01-1.006-.066A32.7 32.7 0 0118.049 25.5h26.876c.036-.497.075-.994.075-1.5a21 21 0 10-21 21v-3zm17.925-19.5h-8.98a36.45 36.45 0 00-4.13-15.825A18.015 18.015 0 0141.925 22.5zM25.005 6.066A32.699 32.699 0 0129.951 22.5H18.049a32.701 32.701 0 014.946-16.434 7.8 7.8 0 012.013 0m-5.822.608a36.45 36.45 0 00-4.13 15.826H6.075a18.014 18.014 0 0113.11-15.825M6.075 25.5h8.98a36.45 36.45 0 004.13 15.825A18.014 18.014 0 016.075 25.5z" fill="#77C528"/><path fill-rule="evenodd" clip-rule="evenodd" d="M37.5 37.5l7.5 3v-3l-7.5-3.75V30a1.5 1.5 0 10-3 0v3.75L27 37.5v3l7.5-3v5.25l-3 2.25v1.5L36 45l4.5 1.5V45l-3-2.25V37.5z" fill="#77C528"/></svg>