<svg width="48" height="48" viewBox="0 0 48 48" fill="none" xmlns="http://www.w3.org/2000/svg">
<path d="M24 42C23.6634 42.0006 23.3272 41.9786 22.9935 41.934C19.9118 36.9939 18.205 31.3205 18.0495 25.5H44.925C44.961 25.0035 45 24.5055 45 24C45 19.8466 43.7684 15.7865 41.4609 12.333C39.1534 8.8796 35.8736 6.18798 32.0364 4.59854C28.1991 3.0091 23.9767 2.59323 19.9031 3.40352C15.8295 4.21381 12.0877 6.21386 9.15077 9.15077C6.21386 12.0877 4.21381 15.8295 3.40352 19.9031C2.59323 23.9767 3.0091 28.1991 4.59854 32.0364C6.18798 35.8736 8.8796 39.1534 12.333 41.4609C15.7865 43.7684 19.8466 45 24 45V42ZM41.925 22.5H32.9445C32.7845 16.9803 31.3724 11.5691 28.815 6.67501C32.3529 7.66182 35.5046 9.70644 37.8478 12.5349C40.1909 15.3633 41.6136 18.8403 41.925 22.5ZM25.005 6.06601C28.0873 11.006 29.7946 16.6794 29.9505 22.5H18.0495C18.2055 16.6794 19.9128 11.006 22.995 6.06601C23.6632 5.97906 24.3398 5.97906 25.008 6.06601M19.1865 6.67351C16.6283 11.5679 15.2158 16.9797 15.0555 22.5H6.07501C6.38646 18.8403 7.8091 15.3633 10.1523 12.5349C12.4954 9.70644 15.6471 7.66182 19.185 6.67501M6.07501 25.5H15.0555C15.2155 31.0197 16.6276 36.4309 19.185 41.325C15.6471 40.3382 12.4954 38.2936 10.1523 35.4652C7.8091 32.6367 6.38646 29.1597 6.07501 25.5Z" fill="#77C528"/>
<path fill-rule="evenodd" clip-rule="evenodd" d="M37.5 37.5L45 40.5V37.5L37.5 33.75V30C37.5 29.6022 37.342 29.2206 37.0607 28.9393C36.7794 28.658 36.3978 28.5 36 28.5C35.6022 28.5 35.2206 28.658 34.9393 28.9393C34.658 29.2206 34.5 29.6022 34.5 30V33.75L27 37.5V40.5L34.5 37.5V42.75L31.5 45V46.5L36 45L40.5 46.5V45L37.5 42.75V37.5Z" fill="#77C528"/>
</svg>
