<svg width="48" height="49" fill="none" xmlns="http://www.w3.org/2000/svg"><g clip-path="url(#clip0_18_203)"><path d="M27 .5c1.234 0 2.398.234 3.492.703a9.03 9.03 0 012.86 1.922 9.284 9.284 0 011.945 2.883A8.363 8.363 0 0136 9.5v3h6v15h-3v-12h-6v18h-3v-18H6v27c0 .422.078.813.234 1.172.157.36.368.672.633.937.266.266.586.485.961.657.375.172.766.25 1.172.234h15v3H9a5.754 5.754 0 01-2.32-.469 6.388 6.388 0 01-1.922-1.289 5.609 5.609 0 01-1.29-1.898A6.395 6.395 0 013 42.5v-30h6v-3c0-1.234.234-2.398.703-3.492a9.03 9.03 0 011.922-2.86 9.362 9.362 0 012.86-1.945A8.321 8.321 0 0118 .5a8.81 8.81 0 014.523 1.219A8.726 8.726 0 0127 .5zm6 9c0-.828-.156-1.602-.469-2.32a6.388 6.388 0 00-1.289-1.922 5.609 5.609 0 00-1.898-1.29A6.395 6.395 0 0027 3.5c-.703 0-1.367.117-1.992.352a8.815 8.815 0 011.078 1.664 7.67 7.67 0 01.586 1.64c.125.547.21 1.102.258 1.664.047.563.07 1.164.07 1.805V12.5h6v-3zm-21 3h12v-3c0-.828-.156-1.602-.469-2.32a6.388 6.388 0 00-1.289-1.922 5.609 5.609 0 00-1.898-1.29A6.395 6.395 0 0018 3.5c-.828 0-1.602.156-2.32.469a6.39 6.39 0 00-1.922 1.289 5.607 5.607 0 00-1.29 1.898A6.394 6.394 0 0012 9.5v3zm36 21v15h-3v-15h3zm-9-3h3v18h-3v-18zm-6 6h3v12h-3v-12zm-6 6h3v6h-3v-6z" fill="#77C528"/></g><defs><clipPath id="clip0_18_203"><path fill="#fff" transform="translate(0 .5)" d="M0 0h48v48H0z"/></clipPath></defs></svg>