<svg width="48" height="49" viewBox="0 0 48 49" fill="none" xmlns="http://www.w3.org/2000/svg">
<g clip-path="url(#clip0_18_203)">
<path d="M27 0.5C28.2344 0.5 29.3984 0.734375 30.4922 1.20312C31.5859 1.67188 32.5391 2.3125 33.3516 3.125C34.1641 3.9375 34.8125 4.89844 35.2969 6.00781C35.7812 7.11719 36.0156 8.28125 36 9.5V12.5H42V27.5H39V15.5H33V33.5H30V15.5H6V42.5C6 42.9219 6.07812 43.3125 6.23438 43.6719C6.39062 44.0312 6.60156 44.3438 6.86719 44.6094C7.13281 44.875 7.45312 45.0938 7.82812 45.2656C8.20312 45.4375 8.59375 45.5156 9 45.5H24V48.5H9C8.17188 48.5 7.39844 48.3438 6.67969 48.0312C5.96094 47.7188 5.32031 47.2891 4.75781 46.7422C4.19531 46.1953 3.76562 45.5625 3.46875 44.8438C3.17188 44.125 3.01562 43.3438 3 42.5V12.5H9V9.5C9 8.26562 9.23438 7.10156 9.70312 6.00781C10.1719 4.91406 10.8125 3.96094 11.625 3.14844C12.4375 2.33594 13.3906 1.6875 14.4844 1.20312C15.5781 0.71875 16.75 0.484375 18 0.5C19.625 0.5 21.1328 0.90625 22.5234 1.71875C23.9141 0.90625 25.4062 0.5 27 0.5ZM33 9.5C33 8.67188 32.8438 7.89844 32.5312 7.17969C32.2188 6.46094 31.7891 5.82031 31.2422 5.25781C30.6953 4.69531 30.0625 4.26562 29.3438 3.96875C28.625 3.67188 27.8438 3.51562 27 3.5C26.2969 3.5 25.6328 3.61719 25.0078 3.85156C25.4609 4.41406 25.8203 4.96875 26.0859 5.51562C26.3516 6.0625 26.5469 6.60938 26.6719 7.15625C26.7969 7.70312 26.8828 8.25781 26.9297 8.82031C26.9766 9.38281 27 9.98438 27 10.625V12.5H33V9.5ZM12 12.5H24V9.5C24 8.67188 23.8438 7.89844 23.5312 7.17969C23.2188 6.46094 22.7891 5.82031 22.2422 5.25781C21.6953 4.69531 21.0625 4.26562 20.3438 3.96875C19.625 3.67188 18.8438 3.51562 18 3.5C17.1719 3.5 16.3984 3.65625 15.6797 3.96875C14.9609 4.28125 14.3203 4.71094 13.7578 5.25781C13.1953 5.80469 12.7656 6.4375 12.4688 7.15625C12.1719 7.875 12.0156 8.65625 12 9.5V12.5ZM48 33.5V48.5H45V33.5H48ZM39 30.5H42V48.5H39V30.5ZM33 36.5H36V48.5H33V36.5ZM27 42.5H30V48.5H27V42.5Z" fill="#77C528"/>
</g>
<defs>
<clipPath id="clip0_18_203">
<rect width="48" height="48" fill="white" transform="translate(0 0.5)"/>
</clipPath>
</defs>
</svg>
