<svg width="48" height="48" viewBox="0 0 48 48" fill="none" xmlns="http://www.w3.org/2000/svg">
<path d="M13.5 19.6C15.3778 19.6 16.9 18.0778 16.9 16.2C16.9 14.3222 15.3778 12.8 13.5 12.8C11.6222 12.8 10.1 14.3222 10.1 16.2C10.1 18.0778 11.6222 19.6 13.5 19.6Z" stroke="#77C528" stroke-width="2" stroke-linecap="round" stroke-linejoin="round"/>
<path d="M34.5 29.6C36.3778 29.6 37.9 28.0778 37.9 26.2C37.9 24.3222 36.3778 22.8 34.5 22.8C32.6222 22.8 31.1 24.3222 31.1 26.2C31.1 28.0778 32.6222 29.6 34.5 29.6Z" stroke="#77C528" stroke-width="2" stroke-linecap="round" stroke-linejoin="round"/>
<path d="M21.5 5.5H14.2C9.4 5.5 5.5 9.4 5.5 14.1V34C5.5 38.7 9.4 42.6 14.2 42.6H21.5V5.5ZM33.8 5.5H26.5V42.6H33.8C38.6 42.6 42.5 38.7 42.5 34V14.1C42.5 9.4 38.6 5.5 33.8 5.5Z" stroke="#77C528" stroke-width="2" stroke-linecap="round" stroke-linejoin="round"/>
</svg>
