<svg width="36" height="28" fill="none" xmlns="http://www.w3.org/2000/svg"><path d="M15.516 20.384c.62.621 1.416.904 2.388.848.972-.055 1.681-.404 2.128-1.048L30.538 5.538 15.816 15.97c-.67.445-1.042 1.137-1.118 2.076-.076.939.197 1.717.818 2.338zM18 0c1.839 0 3.512.224 5.02.672 1.51.447 3.013 1.13 4.512 2.05l-1.84 1.246a16.392 16.392 0 00-3.656-1.466A15.67 15.67 0 0018 2C13.567 2 9.791 3.559 6.674 6.676 3.557 9.793 1.999 13.568 2 18c0 1.4.192 2.783.576 4.15.384 1.367.925 2.65 1.624 3.85h27.6a14.62 14.62 0 001.676-3.95A16.97 16.97 0 0034 17.8c0-1.2-.155-2.463-.464-3.788a13.255 13.255 0 00-1.468-3.704l1.248-1.84c.973 1.67 1.662 3.24 2.066 4.712.404 1.472.61 3.004.618 4.596.008 1.72-.183 3.325-.574 4.816-.39 1.49-.996 2.993-1.82 4.508-.16.267-.403.483-.73.65-.327.167-.685.25-1.076.25H4.2a2.03 2.03 0 01-1.02-.268 2.255 2.255 0 01-.788-.786C1.731 25.779 1.167 24.463.7 22.998.233 21.533 0 19.867 0 18c0-2.459.467-4.78 1.4-6.962a18.388 18.388 0 013.818-5.734c1.613-1.64 3.521-2.935 5.724-3.884C13.145.47 15.497-.003 18 0z" fill="#73C128"/></svg>