<svg width="34" height="40" fill="none" xmlns="http://www.w3.org/2000/svg"><path d="M5.715 17.456v5.088m0-5.088L.843 8.96m4.872 8.496l4.098 2.554m14.017-8.46l-4.098-2.555m4.098 19.478l-4.098-2.555v5.089M.843 8.96v22.08l13.683-8.221M.843 8.96l14.017 8.494m0 5.563V39.5m0 0l18.297-10.993M14.86 39.5l4.873-8.494 4.098-2.534 9.326.035m0 0l-14.025-8.496m0 0l14.025-8.426m-14.025 8.426l-4.272-2.557m4.272 2.557l.601-5.927m13.424-2.499L14.86.5m18.297 11.085l-9.326-.036-4.098 2.535M14.86.5l4.873 8.493M14.86.5v16.954M9.813 20.01l-4.098 2.533-4.872 8.495m8.97-11.028l9.92 5.907m0-16.923v5.09m0 0l-4.873 3.369" stroke="#77C528" stroke-linecap="round" stroke-linejoin="round"/></svg>