<svg width="34" height="40" viewBox="0 0 34 40" fill="none" xmlns="http://www.w3.org/2000/svg">
<path d="M5.71502 17.456V22.544M5.71502 17.456L0.843018 8.96M5.71502 17.456L9.81302 20.01M23.83 11.55L19.732 8.995M23.83 28.473L19.732 25.918V31.007M0.843018 8.96V31.04L14.526 22.819M0.843018 8.96L14.86 17.454M14.86 23.017V39.5M14.86 39.5L33.157 28.507M14.86 39.5L19.733 31.006L23.831 28.472L33.157 28.507M33.157 28.507L19.132 20.011M19.132 20.011L33.157 11.585M19.132 20.011L14.86 17.454M19.132 20.011L19.733 14.084M33.157 11.585L14.86 0.5M33.157 11.585L23.831 11.549L19.733 14.084M14.86 0.5L19.733 8.993M14.86 0.5V17.454M9.81302 20.01L5.71502 22.543L0.843018 31.038M9.81302 20.01L19.733 25.917M19.733 8.994V14.084M19.733 14.084L14.86 17.453" stroke="#77C528" stroke-linecap="round" stroke-linejoin="round"/>
</svg>
