<svg width="29" height="29" viewBox="0 0 29 29" fill="none" xmlns="http://www.w3.org/2000/svg">
<path d="M5.654 12.27C4.09267 12.27 2.76 11.718 1.656 10.614C0.552 9.51004 0 8.1767 0 6.61404C0 5.05404 0.552 3.72204 1.656 2.61804C2.76 1.51404 4.09267 0.962036 5.654 0.962036C7.21533 0.962036 8.548 1.51404 9.652 2.61804C10.756 3.72204 11.308 5.0547 11.308 6.61604C11.308 8.17737 10.756 9.51004 9.652 10.614C8.548 11.718 7.21533 12.27 5.654 12.27ZM5.652 10.27C6.66533 10.27 7.528 9.9147 8.24 9.20404C8.952 8.49337 9.308 7.63137 9.308 6.61804C9.308 5.6047 8.95267 4.74137 8.242 4.02804C7.53133 3.3147 6.66933 2.95937 5.656 2.96204C4.64267 2.9647 3.78 3.31937 3.068 4.02604C2.356 4.7367 2 5.5987 2 6.61204C2 7.62537 2.35533 8.4887 3.066 9.20204C3.77533 9.9127 4.63733 10.268 5.652 10.268M22.384 29C20.824 29 19.4913 28.448 18.386 27.344C17.2833 26.24 16.732 24.9074 16.732 23.346C16.732 21.7847 17.2833 20.452 18.386 19.348C19.4887 18.244 20.822 17.692 22.386 17.692C23.95 17.692 25.282 18.244 26.382 19.348C27.482 20.452 28.034 21.7847 28.038 23.346C28.042 24.9074 27.49 26.24 26.382 27.344C25.274 28.448 23.9413 29 22.384 29ZM22.384 27C23.3973 27 24.26 26.6447 24.972 25.934C25.6827 25.2247 26.038 24.3627 26.038 23.348C26.038 22.3334 25.6833 21.4707 24.974 20.76C24.2647 20.0494 23.4027 19.6934 22.388 19.692C21.3733 19.6907 20.51 20.046 19.798 20.758C19.0873 21.4674 18.732 22.3294 18.732 23.344C18.732 24.3587 19.0867 25.2214 19.796 25.932C20.5053 26.6427 21.3693 26.9987 22.384 27ZM1.762 28.616L0.384 27.238L26.28 1.34604L27.656 2.72204L1.762 28.616Z" fill="#77C528"/>
</svg>
