<svg width="29" height="29" fill="none" xmlns="http://www.w3.org/2000/svg"><path d="M5.654 12.27c-1.561 0-2.894-.552-3.998-1.656C.552 9.51 0 8.177 0 6.614c0-1.56.552-2.892 1.656-3.996C2.76 1.514 4.093.962 5.654.962c1.561 0 2.894.552 3.998 1.656 1.104 1.104 1.656 2.437 1.656 3.998 0 1.561-.552 2.894-1.656 3.998-1.104 1.104-2.437 1.656-3.998 1.656zm-.002-2c1.013 0 1.876-.355 2.588-1.066.712-.71 1.068-1.573 1.068-2.586s-.355-1.877-1.066-2.59c-.71-.713-1.573-1.069-2.586-1.066-1.013.003-1.876.357-2.588 1.064C2.356 4.736 2 5.599 2 6.612s.355 1.877 1.066 2.59c.71.71 1.571 1.066 2.586 1.066M22.384 29c-1.56 0-2.893-.552-3.998-1.656-1.103-1.104-1.654-2.437-1.654-3.998 0-1.561.551-2.894 1.654-3.998 1.103-1.104 2.436-1.656 4-1.656s2.896.552 3.996 1.656c1.1 1.104 1.652 2.437 1.656 3.998.004 1.561-.548 2.894-1.656 3.998C25.274 28.448 23.942 29 22.384 29zm0-2c1.013 0 1.876-.355 2.588-1.066.71-.71 1.066-1.571 1.066-2.586s-.355-1.877-1.064-2.588c-.71-.71-1.571-1.067-2.586-1.068-1.015-.001-1.878.354-2.59 1.066-.71.71-1.066 1.571-1.066 2.586s.355 1.877 1.064 2.588c.71.71 1.573 1.067 2.588 1.068zM1.762 28.616L.384 27.238 26.28 1.346l1.376 1.376L1.762 28.616z" fill="#77C528"/></svg>